<?xml version="1.0" encoding="UTF-8"?>
<svg width="65px" height="153px" viewBox="0 0 65 153" version="1.1" xmlns="http://www.w3.org/2000/svg" xmlns:xlink="http://www.w3.org/1999/xlink">
    <!-- Generator: Sketch 53.2 (72643) - https://sketchapp.com -->
    <title>Pattern</title>
    <desc>Created with Sketch.</desc>
    <g id="Home" stroke="none" stroke-width="1" fill="none" fill-rule="evenodd">
        <g id="Homepage" transform="translate(-61.000000, -3746.000000)" stroke="#818795" stroke-width="2">
            <g id="Startups" transform="translate(61.000000, 3033.000000)">
                <g id="Pattern" transform="translate(32.000000, 789.500000) scale(-1, 1) translate(-32.000000, -789.500000) translate(0.000000, 714.000000)">
                    <path d="M63.8342655,75.6910973 L48.7710796,76.9351681" id="Stroke-1393"></path>
                    <path d="M15.0538407,75.4039292 L0.0432212389,77.2164956" id="Stroke-1397"></path>
                    <path d="M62.7868319,0.919911504 L49.7912566,8.63548673" id="Stroke-2042"></path>
                    <path d="M63.2973097,25.772708 L49.2971327,31.4732389" id="Stroke-2043"></path>
                    <path d="M63.6483363,50.7107788 L48.9453274,54.2249381" id="Stroke-2044"></path>
                    <path d="M63.8395221,100.671611 L48.7588142,99.6455929" id="Stroke-2045"></path>
                    <path d="M63.6800708,125.614938 L48.9147611,122.386973" id="Stroke-2046"></path>
                    <path d="M63.3716814,150.499469 L49.2176991,145.192212" id="Stroke-2047"></path>
                    <path d="M38.0827788,0.414690265 L25.7355221,9.12902655" id="Stroke-2074"></path>
                    <path d="M38.7369381,25.3580177 L25.098885,31.8762478" id="Stroke-2075"></path>
                    <path d="M39.1940708,50.3969381 L24.650708,54.5282655" id="Stroke-2076"></path>
                    <path d="M39.4333451,75.4730442 L24.4129912,77.1473805" id="Stroke-2077"></path>
                    <path d="M39.4759823,100.533381 L24.3758053,99.7779823" id="Stroke-2078"></path>
                    <path d="M39.0079469,150.467735 L24.8325487,145.224726" id="Stroke-2079"></path>
                    <path d="M13.394885,-2.84217094e-14 L1.67063717,9.53982301" id="Stroke-2101"></path>
                    <path d="M14.2083009,25.0601416 L0.868123894,32.1702301" id="Stroke-2102"></path>
                    <path d="M14.7666726,50.2215221 L0.324548673,54.6993982" id="Stroke-2103"></path>
                    <path d="M15.0962832,100.538637 L-3.2844838e-12,99.7735044" id="Stroke-2104"></path>
                    <path d="M14.9368319,125.598973 L0.159840708,122.408" id="Stroke-2105"></path>
                    <path d="M39.3217876,125.540372 L24.5233805,122.462319" id="Stroke-2457"></path>
                    <path d="M14.6017699,150.552814 L0.490619469,145.140425" id="Stroke-2458"></path>
                </g>
            </g>
        </g>
    </g>
</svg>