<?xml version="1.0" encoding="UTF-8"?>
<svg width="431px" height="636px" viewBox="0 0 431 636" version="1.1" xmlns="http://www.w3.org/2000/svg" xmlns:xlink="http://www.w3.org/1999/xlink">
    <!-- Generator: Sketch 53.2 (72643) - https://sketchapp.com -->
    <title>Group 3</title>
    <desc>Created with Sketch.</desc>
    <g id="Home" stroke="none" stroke-width="1" fill="none" fill-rule="evenodd">
        <g id="Homepage" transform="translate(-120.000000, -367.000000)" stroke="#4fd6e5">
            <g id="Hero-Copy">
                <g id="Group-3" transform="translate(120.000000, 368.000000)">
                    <g id="Pattern" transform="translate(215.000000, 317.500000) scale(-1, 1) translate(-215.000000, -317.500000) " stroke-width="2">
                        <path d="M154.711009,23.8797345 L153.067823,38.9059292" id="Stroke-1"></path>
                        <path d="M130.240973,0.0371858407 L128.78469,15.0789558" id="Stroke-6"></path>
                        <path d="M32.7066018,634.92292 L31.3126195,619.869469" id="Stroke-8"></path>
                        <path d="M57.7614867,634.827327 L55.0221947,619.960779" id="Stroke-9"></path>
                        <path d="M8.90123894,587.179416 L6.37610619,572.275876" id="Stroke-16"></path>
                        <path d="M8.25778761,611.09108 L7.0020354,596.027894" id="Stroke-19"></path>
                        <path d="M203.262867,143.028814 L202.018796,158.097841" id="Stroke-21"></path>
                        <path d="M178.845982,71.5223894 L177.681735,86.5972566" id="Stroke-30"></path>
                        <path d="M203.794566,95.4235398 L201.491381,110.364071" id="Stroke-32"></path>
                        <path d="M203.193752,190.69269 L202.087912,205.767558" id="Stroke-37"></path>
                        <path d="M179.351204,47.7489558 L177.182354,62.7070088" id="Stroke-41"></path>
                        <path d="M154.099487,47.6691327 L153.669221,62.7809912" id="Stroke-45"></path>
                        <path d="M105.175381,2.27373675e-13 L105.085823,15.1176991" id="Stroke-48"></path>
                        <path d="M178.388655,95.3384602 L178.12777,110.450319" id="Stroke-49"></path>
                        <path d="M5.5299823,0.292424779 L9.68272566,14.8299469" id="Stroke-127"></path>
                        <path d="M30.3350796,0.186123894 L33.6370265,14.9358584" id="Stroke-147"></path>
                        <path d="M55.2090973,0.0903362832 L57.5220177,15.0269735" id="Stroke-150"></path>
                        <path d="M80.1631327,0.0212212389 L81.3390619,15.0960885" id="Stroke-151"></path>
                        <path d="M203.156372,166.855398 L202.118673,181.936106" id="Stroke-205"></path>
                        <path d="M7.58766372,634.95485 L7.66748673,619.83715" id="Stroke-219"></path>
                        <path d="M4.66867257,24.4328496 L10.5288496,38.364885" id="Stroke-220"></path>
                        <path d="M29.4842832,24.2624956 L34.4722478,38.5293982" id="Stroke-236"></path>
                        <path d="M104.425628,23.8637699 L105.819611,38.9172212" id="Stroke-237"></path>
                        <path d="M129.544372,23.8320354 L129.464549,38.9497345" id="Stroke-240"></path>
                        <path d="M54.3849735,24.0977876 L58.3293982,38.6878761" id="Stroke-248"></path>
                        <path d="M79.3707434,23.9595575 L82.1100354,38.8261062" id="Stroke-249"></path>
                        <path d="M128.874442,47.6958053 L130.130195,62.7589912" id="Stroke-308"></path>
                        <path d="M3.82838938,48.6795752 L11.3473274,61.7919646" id="Stroke-309"></path>
                        <path d="M103.697097,47.8021062 L106.531788,62.6530796" id="Stroke-326"></path>
                        <path d="M28.654708,48.4403009 L35.2858584,62.0257876" id="Stroke-327"></path>
                        <path d="M53.5820708,48.2008319 L59.1229558,62.2652566" id="Stroke-334"></path>
                        <path d="M78.5997699,47.9775221 L82.8693274,62.4780531" id="Stroke-335"></path>
                        <path d="M153.519894,71.5116814 L154.238301,86.6079646" id="Stroke-374"></path>
                        <path d="M178.766159,262.193858 L177.761558,277.274566" id="Stroke-381"></path>
                        <path d="M128.230991,71.607469 L130.756124,86.5110088" id="Stroke-398"></path>
                        <path d="M3.03619469,73.0378584 L12.1282301,85.1125487" id="Stroke-399"></path>
                        <path d="M27.8625133,72.7187611 L36.0570265,85.4223009" id="Stroke-421"></path>
                        <path d="M103.00069,71.8041062 L107.217681,86.3202124" id="Stroke-422"></path>
                        <path d="M77.8552743,72.0755044 L83.5986372,86.0542655" id="Stroke-433"></path>
                        <path d="M52.805646,72.3891504 L59.8826372,85.7468496" id="Stroke-434"></path>
                        <path d="M152.993451,95.3861593 L154.753451,110.402619" id="Stroke-463"></path>
                        <path d="M127.630177,95.5722832 L131.346814,110.220779" id="Stroke-488"></path>
                        <path d="M178.000637,119.175752 L178.504885,134.28177" id="Stroke-510"></path>
                        <path d="M27.1180177,97.1037168 L36.7902301,108.722832" id="Stroke-516"></path>
                        <path d="M102.341274,95.864708 L107.866584,109.934973" id="Stroke-517"></path>
                        <path d="M77.1481593,96.2424071 L84.2893982,109.561168" id="Stroke-523"></path>
                        <path d="M52.0718584,96.6678053 L60.6012389,109.147451" id="Stroke-524"></path>
                        <path d="M152.525611,119.292566 L155.210389,134.164956" id="Stroke-549"></path>
                        <path d="M127.08777,119.56377 L131.879097,133.898814" id="Stroke-583"></path>
                        <path d="M177.702761,143.023558 L178.798867,158.102319" id="Stroke-592"></path>
                        <path d="M101.729752,119.967947 L108.466035,133.500867" id="Stroke-604"></path>
                        <path d="M26.4268673,121.589522 L37.471646,131.915894" id="Stroke-605"></path>
                        <path d="M76.4834867,120.478425 L84.9369381,133.006743" id="Stroke-618"></path>
                        <path d="M51.380708,121.031345 L61.2768142,132.457717" id="Stroke-619"></path>
                        <path d="M152.137398,143.204425 L155.58731,157.923009" id="Stroke-638"></path>
                        <path d="M177.522088,166.876619 L178.978372,181.918389" id="Stroke-671"></path>
                        <path d="M126.614478,143.576673 L132.340319,157.561274" id="Stroke-674"></path>
                        <path d="M25.8046372,146.187274 L38.0818053,155.00285" id="Stroke-701"></path>
                        <path d="M101.176832,144.108177 L109.003381,157.039504" id="Stroke-702"></path>
                        <path d="M75.8772212,144.767593 L85.5338584,156.396442" id="Stroke-711"></path>
                        <path d="M50.7479646,145.480159 L61.8978761,155.695558" id="Stroke-712"></path>
                        <path d="M151.860938,167.110832 L155.865717,181.685345" id="Stroke-721"></path>
                        <path d="M177.484708,190.714106 L179.01692,205.751982" id="Stroke-742"></path>
                        <path d="M0.531893805,171.657044 L14.5846372,177.22908" id="Stroke-757"></path>
                        <path d="M126.231717,167.578673 L132.718796,181.228407" id="Stroke-758"></path>
                        <path d="M100.698283,168.259115 L109.476867,180.56354" id="Stroke-784"></path>
                        <path d="M25.2569735,170.896584 L38.6146726,177.979416" id="Stroke-785"></path>
                        <path d="M151.722708,190.985115 L155.998106,205.485646" id="Stroke-795"></path>
                        <path d="M75.3350088,169.099398 L86.0702301,179.739221" id="Stroke-798"></path>
                        <path d="M50.1843363,170.013858 L62.4517699,178.841115" id="Stroke-799"></path>
                        <path d="M177.638903,214.529982 L178.861558,229.599009" id="Stroke-806"></path>
                        <path d="M203.486177,119.218195 L201.800159,134.238549" id="Stroke-821"></path>
                        <path d="M125.96577,191.543487 L132.978513,204.938177" id="Stroke-836"></path>
                        <path d="M0.175610619,196.653327 L14.9311858,199.924124" id="Stroke-837"></path>
                        <path d="M178.048336,238.346053 L178.463027,253.452071" id="Stroke-859"></path>
                        <path d="M151.775858,214.801186 L155.944177,229.332867" id="Stroke-862"></path>
                        <path d="M24.8156106,195.738867 L39.0494159,200.82223" id="Stroke-867"></path>
                        <path d="M100.310071,192.389027 L109.859628,204.107434" id="Stroke-868"></path>
                        <path d="M74.8562655,193.462938 L86.5376814,203.055327" id="Stroke-884"></path>
                        <path d="M49.689823,194.632832 L62.9346018,201.90646" id="Stroke-885"></path>
                        <path d="M0,221.830673 L15.1060177,222.442" id="Stroke-905"></path>
                        <path d="M125.870177,215.428673 L133.069823,228.722124" id="Stroke-906"></path>
                        <path d="M152.105469,238.553398 L155.625469,253.250566" id="Stroke-918"></path>
                        <path d="M24.496708,220.745858 L39.3593628,223.504619" id="Stroke-938"></path>
                        <path d="M100.038867,216.454885 L110.119929,227.717717" id="Stroke-939"></path>
                        <path d="M49.2751327,219.347398 L63.3453982,224.876602" id="Stroke-953"></path>
                        <path d="M74.4575398,217.821416 L86.9274513,226.372212" id="Stroke-954"></path>
                        <path d="M203.406354,214.545947 L201.874142,229.583823" id="Stroke-959"></path>
                        <path d="M152.823292,262.247009 L154.924,277.220637" id="Stroke-964"></path>
                        <path d="M126.029628,239.18069 L132.915823,252.633788" id="Stroke-967"></path>
                        <path d="M0.0957876106,247.220425 L15.0110088,244.753699" id="Stroke-968"></path>
                        <path d="M99.948531,240.366549 L110.210655,251.469735" id="Stroke-1009"></path>
                        <path d="M24.3689912,245.986867 L39.4866903,245.959611" id="Stroke-1010"></path>
                        <path d="M126.609221,262.746973 L132.346743,276.731575" id="Stroke-1022"></path>
                        <path d="M0.632743363,272.860354 L14.4849558,266.815221" id="Stroke-1023"></path>
                        <path d="M74.1544071,242.142513 L87.2239646,249.729593" id="Stroke-1024"></path>
                        <path d="M48.9560354,244.189681 L63.6532035,247.719416" id="Stroke-1025"></path>
                        <path d="M1.89297345,298.680956 L13.2512035,288.701133" id="Stroke-1062"></path>
                        <path d="M127.906637,286.180088 L131.076195,300.96292" id="Stroke-1063"></path>
                        <path d="M24.576531,271.578903 L39.2834336,268.068637" id="Stroke-1066"></path>
                        <path d="M100.187805,263.991044 L109.976832,275.50892" id="Stroke-1067"></path>
                        <path d="M73.9737345,266.304159 L87.4054159,273.24292" id="Stroke-1086"></path>
                        <path d="M48.7646549,269.250018 L63.8453628,270.355858" id="Stroke-1087"></path>
                        <path d="M130.171858,309.873699 L128.853805,324.932991" id="Stroke-1090"></path>
                        <path d="M154.040885,286.009929 L153.721593,301.127628" id="Stroke-1104"></path>
                        <path d="M101.187345,287.110513 L108.998319,300.047681" id="Stroke-1106"></path>
                        <path d="M25.5601062,297.734372 L38.3220531,289.631363" id="Stroke-1107"></path>
                        <path d="M104.053381,309.921593 L106.185239,324.88354" id="Stroke-1139"></path>
                        <path d="M74.0535575,289.987257 L87.3255929,297.223894" id="Stroke-1144"></path>
                        <path d="M48.8390265,294.841858 L63.769823,292.46469" id="Stroke-1145"></path>
                        <path d="M75.856,311.623186 L85.5593628,323.215044" id="Stroke-1184"></path>
                        <path d="M429.421894,101.128743 L414.751982,104.771398" id="Stroke-1374"></path>
                        <path d="M429.549416,244.748053 L414.628354,247.177788" id="Stroke-1375"></path>
                        <path d="M429.30469,415.086265 L414.874248,410.586973" id="Stroke-1376"></path>
                        <path d="M426.78423,561.778761 L417.341752,549.97469" id="Stroke-1377"></path>
                        <path d="M404.760088,100.219735 L390.658673,105.665221" id="Stroke-1378"></path>
                        <path d="M404.739062,123.998425 L390.680478,129.554885" id="Stroke-1379"></path>
                        <path d="M403.340602,537.058938 L392.05246,527.009027" id="Stroke-1380"></path>
                        <path d="M402.750301,561.486336 L392.626407,550.262442" id="Stroke-1381"></path>
                        <path d="M352.390549,634.098796 L345.451788,620.672956" id="Stroke-1386"></path>
                        <path d="M329.994354,145.325965 L319.136478,155.843133" id="Stroke-1388"></path>
                        <path d="M331.387558,511.466903 L317.774814,504.894159" id="Stroke-1389"></path>
                        <path d="M280.543805,25.517469 L271.074071,37.3001239" id="Stroke-1390"></path>
                        <path d="M255.43577,24.9964779 L247.412584,37.8109912" id="Stroke-1391"></path>
                        <path d="M254.547788,215.194655 L248.284602,228.949522" id="Stroke-1392"></path>
                        <path d="M258.992956,436.020336 L243.92977,437.264407" id="Stroke-1393"></path>
                        <path d="M255.318761,633.859522 L247.529204,620.906779" id="Stroke-1394"></path>
                        <path d="M205.60246,0.600814159 L199.720867,14.5270088" id="Stroke-1396"></path>
                        <path d="M210.212531,435.733168 L195.201912,437.545735" id="Stroke-1397"></path>
                        <path d="M209.281912,535.729593 L196.116956,528.306053" id="Stroke-1398"></path>
                        <path d="M185.667929,486.140814 L170.992177,482.525416" id="Stroke-1402"></path>
                        <path d="M182.674372,609.708584 L173.926938,597.382743" id="Stroke-1403"></path>
                        <path d="M161.261752,410.869664 L146.644407,414.71869" id="Stroke-1404"></path>
                        <path d="M133.303646,610.10731 L125.784708,596.99492" id="Stroke-1407"></path>
                        <path d="M107.647947,634.524195 L102.659982,620.257292" id="Stroke-1411"></path>
                        <path d="M58.5324602,610.809168 L54.2629027,596.308637" id="Stroke-1416"></path>
                        <path d="M34.1315398,586.982584 L29.9145487,572.466478" id="Stroke-1418"></path>
                        <path d="M10.0442655,539.22292 L5.25293805,524.887876" id="Stroke-1420"></path>
                        <path d="M429.565381,6.49759292 L414.613168,8.74626549" id="Stroke-1813"></path>
                        <path d="M429.522743,30.0850973 L414.656195,32.8243894" id="Stroke-1814"></path>
                        <path d="M429.480301,53.7148496 L414.693575,56.8513097" id="Stroke-1815"></path>
                        <path d="M429.448177,77.3979469 L414.729593,80.8381239" id="Stroke-1816"></path>
                        <path d="M429.411186,124.912885 L414.766584,128.656779" id="Stroke-1817"></path>
                        <path d="M429.411186,148.755628 L414.76269,152.483947" id="Stroke-1818"></path>
                        <path d="M429.432212,172.656584 L414.746726,176.250566" id="Stroke-1819"></path>
                        <path d="M429.458885,196.621593 L414.714991,199.95469" id="Stroke-1820"></path>
                        <path d="M429.501327,220.650071 L414.677611,223.595735" id="Stroke-1821"></path>
                        <path d="M429.597115,268.909699 L414.586496,270.691115" id="Stroke-1822"></path>
                        <path d="M429.634496,293.140265 L414.549894,294.135133" id="Stroke-1823"></path>
                        <path d="M429.65046,317.429628 L414.532761,317.525027" id="Stroke-1824"></path>
                        <path d="M429.634496,341.777204 L414.544053,340.852425" id="Stroke-1825"></path>
                        <path d="M429.575894,366.172867 L414.602265,364.136407" id="Stroke-1826"></path>
                        <path d="M429.469593,390.61623 L414.708177,387.37269" id="Stroke-1827"></path>
                        <path d="M429.065611,439.572265 L415.102425,433.782177" id="Stroke-1828"></path>
                        <path d="M428.757027,464.058265 L415.405168,456.969593" id="Stroke-1829"></path>
                        <path d="M428.374265,488.539009 L415.783646,480.175115" id="Stroke-1830"></path>
                        <path d="M427.916938,512.992885 L416.229681,503.400496" id="Stroke-1831"></path>
                        <path d="M427.385044,537.40977 L416.751062,526.662867" id="Stroke-1832"></path>
                        <path d="M426.125009,586.083894 L417.988903,573.343363" id="Stroke-1833"></path>
                        <path d="M425.407186,610.325363 L418.692319,596.782708" id="Stroke-1834"></path>
                        <path d="M424.646726,634.487009 L419.434867,620.296035" id="Stroke-1835"></path>
                        <path d="M405.005009,5.63102655 L390.418814,9.59297345" id="Stroke-1844"></path>
                        <path d="M404.930248,29.2076283 L390.493965,33.6796637" id="Stroke-1845"></path>
                        <path d="M404.802726,76.4992566 L390.615646,81.7208496" id="Stroke-1846"></path>
                        <path d="M404.739062,147.835717 L390.680478,153.386336" id="Stroke-1847"></path>
                        <path d="M404.76554,171.731416 L390.654389,177.155487" id="Stroke-1848"></path>
                        <path d="M404.813434,195.69623 L390.604938,200.865257" id="Stroke-1849"></path>
                        <path d="M404.882549,219.724903 L390.541664,224.504549" id="Stroke-1850"></path>
                        <path d="M405.057965,268.005752 L390.366637,271.578319" id="Stroke-1851"></path>
                        <path d="M405.143044,292.252283 L390.280389,295.00715" id="Stroke-1852"></path>
                        <path d="M405.217611,316.573575 L390.206991,318.364726" id="Stroke-1853"></path>
                        <path d="M405.265504,340.958531 L390.165327,341.661363" id="Stroke-1854"></path>
                        <path d="M405.270566,365.396442 L390.158708,364.896088" id="Stroke-1855"></path>
                        <path d="M405.217611,389.887894 L390.212832,388.085062" id="Stroke-1856"></path>
                        <path d="M404.914478,438.966195 L390.509345,434.377345" id="Stroke-1857"></path>
                        <path d="M404.643274,463.515858 L390.775487,457.501876" id="Stroke-1858"></path>
                        <path d="M404.292442,488.060265 L391.121646,480.642566" id="Stroke-1859"></path>
                        <path d="M403.856336,512.578195 L391.546071,503.805451" id="Stroke-1860"></path>
                        <path d="M402.096336,585.850071 L393.27492,573.572903" id="Stroke-1861"></path>
                        <path d="M400.612796,634.348779 L394.72731,620.428425" id="Stroke-1862"></path>
                        <path d="M380.34885,4.79619469 L366.315575,10.4110619" id="Stroke-1870"></path>
                        <path d="M380.130796,51.9708142 L366.529735,58.5649735" id="Stroke-1871"></path>
                        <path d="M380.045717,75.6326903 L366.614035,82.5656106" id="Stroke-1872"></path>
                        <path d="M379.981858,99.3477168 L366.678673,106.520106" id="Stroke-1873"></path>
                        <path d="M379.944673,146.947735 L366.715469,154.258354" id="Stroke-1874"></path>
                        <path d="M379.976602,170.838177 L366.68315,178.037823" id="Stroke-1875"></path>
                        <path d="M380.040265,194.792283 L366.620265,201.746619" id="Stroke-1876"></path>
                        <path d="M380.14131,218.82115 L366.524673,225.393894" id="Stroke-1877"></path>
                        <path d="M380.26377,242.929451 L366.401823,248.959009" id="Stroke-1878"></path>
                        <path d="M380.407257,267.112319 L366.263009,272.450726" id="Stroke-1879"></path>
                        <path d="M380.550743,291.380265 L366.120301,295.862035" id="Stroke-1880"></path>
                        <path d="M380.694425,315.722779 L365.981681,319.194106" id="Stroke-1881"></path>
                        <path d="M380.805982,340.14492 L365.869345,342.457841" id="Stroke-1882"></path>
                        <path d="M380.880354,364.63092 L365.795752,365.651097" id="Stroke-1883"></path>
                        <path d="M380.896319,389.175327 L365.78446,388.787894" id="Stroke-1884"></path>
                        <path d="M380.837912,413.757115 L365.837027,411.886142" id="Stroke-1885"></path>
                        <path d="M380.699681,438.370442 L365.971363,434.957522" id="Stroke-1886"></path>
                        <path d="M380.47092,462.989416 L366.194283,458.022867" id="Stroke-1887"></path>
                        <path d="M380.157274,487.597681 L366.50754,481.100867" id="Stroke-1888"></path>
                        <path d="M379.747841,512.179469 L366.906071,504.199115" id="Stroke-1889"></path>
                        <path d="M379.248071,536.718619 L367.395327,527.338442" id="Stroke-1890"></path>
                        <path d="M378.668478,561.204425 L367.964407,550.533451" id="Stroke-1891"></path>
                        <path d="M378.014513,585.626761 L368.603186,573.795434" id="Stroke-1892"></path>
                        <path d="M377.29669,609.963823 L369.310496,597.133735" id="Stroke-1893"></path>
                        <path d="M355.602159,3.99854867 L342.308708,11.1981947" id="Stroke-1900"></path>
                        <path d="M355.442708,27.5541239 L342.462708,35.3008496" id="Stroke-1901"></path>
                        <path d="M355.299221,51.1626549 L342.601522,59.3571681" id="Stroke-1902"></path>
                        <path d="M355.182212,74.813823 L342.718142,83.3685133" id="Stroke-1903"></path>
                        <path d="M355.091876,98.5233982 L342.803027,107.329239" id="Stroke-1904"></path>
                        <path d="M355.038531,122.286319 L342.856761,131.234283" id="Stroke-1905"></path>
                        <path d="M355.027823,146.102195 L342.867469,155.083257" id="Stroke-1906"></path>
                        <path d="M355.144832,193.936425 L342.754743,202.592354" id="Stroke-1907"></path>
                        <path d="M355.272549,217.959646 L342.627416,226.237876" id="Stroke-1908"></path>
                        <path d="M355.442708,242.06269 L342.462708,249.809416" id="Stroke-1909"></path>
                        <path d="M355.639345,266.251009 L342.266071,273.29685" id="Stroke-1910"></path>
                        <path d="M355.857593,290.524212 L342.059894,296.697841" id="Stroke-1911"></path>
                        <path d="M356.070195,314.893204 L341.846124,320.007717" id="Stroke-1912"></path>
                        <path d="M356.261575,339.347274 L341.655912,343.233292" id="Stroke-1913"></path>
                        <path d="M356.41577,363.875717 L341.506389,366.385274" id="Stroke-1914"></path>
                        <path d="M356.506106,388.473469 L341.421504,389.47223" id="Stroke-1915"></path>
                        <path d="M356.516814,413.11892 L341.410796,412.513434" id="Stroke-1916"></path>
                        <path d="M356.431735,437.796301 L341.489257,435.520372" id="Stroke-1917"></path>
                        <path d="M356.256319,462.478938 L341.66623,458.522832" id="Stroke-1918"></path>
                        <path d="M355.586389,511.807221 L342.320195,504.564743" id="Stroke-1919"></path>
                        <path d="M355.107646,536.404779 L342.787646,527.647611" id="Stroke-1920"></path>
                        <path d="M354.538761,560.949381 L343.346018,550.788496" id="Stroke-1921"></path>
                        <path d="M353.890053,585.419221 L343.984212,573.99869" id="Stroke-1922"></path>
                        <path d="M353.17223,609.804177 L344.691522,597.293381" id="Stroke-1923"></path>
                        <path d="M330.760071,3.24879646 L318.387504,11.9261416" id="Stroke-1930"></path>
                        <path d="M330.557982,26.8043717 L318.582584,36.0346372" id="Stroke-1931"></path>
                        <path d="M330.371858,50.407646 L318.770265,60.0954336" id="Stroke-1932"></path>
                        <path d="M330.095398,97.7629381 L319.040885,108.073735" id="Stroke-1933"></path>
                        <path d="M330.015575,121.515345 L319.114867,131.985788" id="Stroke-1934"></path>
                        <path d="M330.03154,169.194991 L319.103575,179.644018" id="Stroke-1935"></path>
                        <path d="M330.127327,193.133327 L319.008566,203.374035" id="Stroke-1936"></path>
                        <path d="M330.281327,217.146035 L318.854956,227.036301" id="Stroke-1937"></path>
                        <path d="M330.499381,241.238566 L318.642743,250.618743" id="Stroke-1938"></path>
                        <path d="M330.760071,265.421434 L318.387504,274.104619" id="Stroke-1939"></path>
                        <path d="M331.052496,289.705345 L318.099752,297.500743" id="Stroke-1940"></path>
                        <path d="M331.355434,314.090301 L317.806938,320.795434" id="Stroke-1941"></path>
                        <path d="M331.637345,338.576301 L317.526195,343.98869" id="Stroke-1942"></path>
                        <path d="M331.881876,363.152637 L317.285947,367.099009" id="Stroke-1943"></path>
                        <path d="M332.05223,387.80354 L317.115593,390.132035" id="Stroke-1944"></path>
                        <path d="M332.137115,412.512655 L317.036938,413.108407" id="Stroke-1945"></path>
                        <path d="M332.12115,437.25915 L317.052124,436.04623" id="Stroke-1946"></path>
                        <path d="M331.988177,462.011097 L317.180035,458.97977" id="Stroke-1947"></path>
                        <path d="M331.743646,486.757593 L317.424177,481.923434" id="Stroke-1948"></path>
                        <path d="M330.919522,536.128319 L318.227664,527.91823" id="Stroke-1949"></path>
                        <path d="M330.361345,560.720619 L318.781168,551.011416" id="Stroke-1950"></path>
                        <path d="M328.989363,609.665947 L320.119274,597.42577" id="Stroke-1951"></path>
                        <path d="M328.207876,633.997752 L320.891416,620.774389" id="Stroke-1952"></path>
                        <path d="M305.843416,2.56290265 L294.539699,12.6011327" id="Stroke-1962"></path>
                        <path d="M305.588177,26.1235398 L294.794549,36.7049558" id="Stroke-1963"></path>
                        <path d="M305.353965,49.7270088 L295.021752,60.7659469" id="Stroke-1964"></path>
                        <path d="M305.152071,73.378177 L295.218973,84.7792389" id="Stroke-1965"></path>
                        <path d="M304.992619,97.0772389 L295.372973,108.74308" id="Stroke-1966"></path>
                        <path d="M304.886319,120.829257 L295.480832,132.660584" id="Stroke-1967"></path>
                        <path d="M304.843681,144.629363 L295.521912,156.528832" id="Stroke-1968"></path>
                        <path d="M304.875611,168.487876 L295.49154,180.340619" id="Stroke-1969"></path>
                        <path d="M304.981912,192.404796 L295.389522,204.086212" id="Stroke-1970"></path>
                        <path d="M305.168035,216.401735 L295.203788,227.769699" id="Stroke-1971"></path>
                        <path d="M305.428531,240.478301 L294.942513,251.363434" id="Stroke-1972"></path>
                        <path d="M305.763593,264.65046 L294.619522,274.865858" id="Stroke-1973"></path>
                        <path d="M306.141097,288.934372 L294.245522,298.260035" id="Stroke-1974"></path>
                        <path d="M307.284319,362.466743 L293.130336,367.774" id="Stroke-1975"></path>
                        <path d="M307.555522,387.176053 L292.864195,390.744726" id="Stroke-1976"></path>
                        <path d="M307.720425,411.954478 L292.698124,413.656071" id="Stroke-1977"></path>
                        <path d="M307.768124,436.770088 L292.656265,436.524779" id="Stroke-1978"></path>
                        <path d="M307.688301,461.596407 L292.730248,459.384726" id="Stroke-1979"></path>
                        <path d="M307.475699,486.412018 L292.938177,482.265115" id="Stroke-1980"></path>
                        <path d="M307.140832,511.185186 L293.267204,505.177044" id="Stroke-1981"></path>
                        <path d="M306.688761,535.899752 L293.708761,528.147186" id="Stroke-1982"></path>
                        <path d="M306.135841,560.539947 L294.257788,551.187027" id="Stroke-1983"></path>
                        <path d="M305.487133,585.095062 L294.890142,574.311168" id="Stroke-1984"></path>
                        <path d="M304.758602,609.559646 L295.602319,597.531681" id="Stroke-1985"></path>
                        <path d="M303.971664,633.917929 L296.378743,620.848372" id="Stroke-1986"></path>
                        <path d="M280.857451,1.94612389 L270.764708,13.203115" id="Stroke-1996"></path>
                        <path d="M280.251381,49.1314513 L271.355982,61.3502124" id="Stroke-1997"></path>
                        <path d="M280.001398,72.7878761 L271.606354,85.3570796" id="Stroke-1998"></path>
                        <path d="M279.799504,96.4921947 L271.801628,109.318389" id="Stroke-1999"></path>
                        <path d="M279.586708,144.033805 L272.009363,157.115044" id="Stroke-2000"></path>
                        <path d="M279.602673,167.876354 L271.994177,180.940071" id="Stroke-2001"></path>
                        <path d="M279.708973,191.772248 L271.886319,204.709416" id="Stroke-2002"></path>
                        <path d="M279.92177,215.742319 L271.680531,228.412761" id="Stroke-2003"></path>
                        <path d="M280.235416,239.792212 L271.371168,252.03823" id="Stroke-2004"></path>
                        <path d="M280.64485,263.943345 L270.972637,275.56246" id="Stroke-2005"></path>
                        <path d="M281.123398,288.211292 L270.49915,298.967929" id="Stroke-2006"></path>
                        <path d="M281.644389,312.617469 L269.988283,322.241009" id="Stroke-2007"></path>
                        <path d="M282.165575,337.156619 L269.483451,345.382283" id="Stroke-2008"></path>
                        <path d="M282.633416,361.828549 L269.020673,368.395451" id="Stroke-2009"></path>
                        <path d="M283.016372,386.601717 L268.64823,391.307381" id="Stroke-2010"></path>
                        <path d="M283.271611,411.454513 L268.393381,414.145133" id="Stroke-2011"></path>
                        <path d="M283.388619,436.349947 L268.282602,436.934018" id="Stroke-2012"></path>
                        <path d="M283.35669,461.256088 L268.31492,459.723876" id="Stroke-2013"></path>
                        <path d="M283.175823,486.130106 L268.49423,482.536124" id="Stroke-2014"></path>
                        <path d="M282.85692,510.967133 L268.804177,505.389257" id="Stroke-2015"></path>
                        <path d="M281.857186,560.41223 L269.786389,551.314354" id="Stroke-2016"></path>
                        <path d="M281.203221,585.004531 L270.425168,574.40754" id="Stroke-2017"></path>
                        <path d="M280.47469,609.490531 L271.143186,597.600796" id="Stroke-2018"></path>
                        <path d="M279.677044,633.875487 L271.924478,620.895487" id="Stroke-2019"></path>
                        <path d="M255.808018,1.41442478 L247.045009,13.7285841" id="Stroke-2029"></path>
                        <path d="M255.084743,48.6262301 L247.756602,61.8456991" id="Stroke-2030"></path>
                        <path d="M254.776354,72.2988142 L248.055646,85.8356283" id="Stroke-2031"></path>
                        <path d="M254.521115,96.0083894 L248.310496,109.790513" id="Stroke-2032"></path>
                        <path d="M254.334991,119.760602 L248.49623,133.708212" id="Stroke-2033"></path>
                        <path d="M254.223434,143.555257 L248.596885,157.58269" id="Stroke-2034"></path>
                        <path d="M254.218177,167.382035 L248.60915,181.419204" id="Stroke-2035"></path>
                        <path d="M254.319027,191.26177 L248.507522,205.215221" id="Stroke-2036"></path>
                        <path d="M254.909327,239.202106 L247.927735,252.612372" id="Stroke-2037"></path>
                        <path d="M255.398584,263.315858 L247.449381,276.173204" id="Stroke-2038"></path>
                        <path d="M255.994142,287.562584 L246.865115,299.606124" id="Stroke-2039"></path>
                        <path d="M256.658814,311.958053 L246.215628,322.884071" id="Stroke-2040"></path>
                        <path d="M257.328743,336.523876 L245.555823,346.005292" id="Stroke-2041"></path>
                        <path d="M257.945522,361.24915 L244.949947,368.964726" id="Stroke-2042"></path>
                        <path d="M258.456,386.101947 L244.455823,391.802478" id="Stroke-2043"></path>
                        <path d="M258.807027,411.040018 L244.104018,414.554177" id="Stroke-2044"></path>
                        <path d="M258.998212,461.00085 L243.917504,459.974832" id="Stroke-2045"></path>
                        <path d="M258.838761,485.944177 L244.073451,482.716212" id="Stroke-2046"></path>
                        <path d="M258.530372,510.828708 L244.376389,505.521451" id="Stroke-2047"></path>
                        <path d="M258.089009,535.639062 L244.811133,528.402425" id="Stroke-2048"></path>
                        <path d="M257.525381,560.353823 L245.365027,551.372761" id="Stroke-2049"></path>
                        <path d="M256.866159,584.962088 L246.008283,574.44492" id="Stroke-2050"></path>
                        <path d="M256.12692,609.46931 L246.737009,597.622407" id="Stroke-2051"></path>
                        <path d="M230.721009,0.962353982 L223.373398,14.1701416" id="Stroke-2060"></path>
                        <path d="M230.279841,24.5710796 L223.802496,38.2266549" id="Stroke-2061"></path>
                        <path d="M229.870407,48.2220531 L224.206867,62.2378053" id="Stroke-2062"></path>
                        <path d="M229.498159,71.9213097 L224.568602,86.2096283" id="Stroke-2063"></path>
                        <path d="M229.184319,95.6521062 L224.87777,110.140956" id="Stroke-2064"></path>
                        <path d="M228.934531,119.420283 L225.122496,134.043469" id="Stroke-2065"></path>
                        <path d="M228.780336,143.214938 L225.275912,157.917947" id="Stroke-2066"></path>
                        <path d="M228.812265,190.889522 L225.243593,205.575009" id="Stroke-2067"></path>
                        <path d="M229.040832,214.785221 L225.014637,229.353894" id="Stroke-2068"></path>
                        <path d="M229.445009,238.739522 L224.622531,253.064832" id="Stroke-2069"></path>
                        <path d="M230.019345,262.794673 L224.057929,276.683876" id="Stroke-2070"></path>
                        <path d="M230.747681,286.988248 L223.341664,300.164885" id="Stroke-2071"></path>
                        <path d="M231.58777,311.367947 L222.521044,323.464053" id="Stroke-2072"></path>
                        <path d="M232.449274,335.954796 L221.677062,346.563469" id="Stroke-2073"></path>
                        <path d="M233.241469,360.743929 L220.894212,369.458265" id="Stroke-2074"></path>
                        <path d="M233.895628,385.687257 L220.257575,392.205487" id="Stroke-2075"></path>
                        <path d="M234.352761,410.726177 L219.809398,414.857504" id="Stroke-2076"></path>
                        <path d="M234.592035,435.802283 L219.571681,437.476619" id="Stroke-2077"></path>
                        <path d="M234.634673,460.862619 L219.534496,460.107221" id="Stroke-2078"></path>
                        <path d="M234.166637,510.796973 L219.991239,505.553965" id="Stroke-2079"></path>
                        <path d="M233.714761,535.633805 L220.436885,528.406903" id="Stroke-2080"></path>
                        <path d="M233.140425,560.364336 L221.001487,551.356018" id="Stroke-2081"></path>
                        <path d="M232.465239,584.988566 L221.659929,574.418832" id="Stroke-2082"></path>
                        <path d="M231.715487,609.495788 L222.393717,597.596319" id="Stroke-2083"></path>
                        <path d="M230.896619,633.886195 L223.196619,620.880885" id="Stroke-2084"></path>
                        <path d="M205.097239,24.241469 L200.222195,38.5512035" id="Stroke-2093"></path>
                        <path d="M204.61869,47.9296283 L200.689841,62.5255575" id="Stroke-2094"></path>
                        <path d="M204.177327,71.6606195 L201.11485,86.4648673" id="Stroke-2095"></path>
                        <path d="M203.826496,238.436389 L201.464903,253.367186" id="Stroke-2096"></path>
                        <path d="M204.485717,262.401204 L200.821646,277.067221" id="Stroke-2097"></path>
                        <path d="M205.368442,286.514956 L199.950212,300.626106" id="Stroke-2098"></path>
                        <path d="M206.421327,310.852212 L198.917965,323.970442" id="Stroke-2099"></path>
                        <path d="M207.532619,335.460478 L197.829257,347.046496" id="Stroke-2100"></path>
                        <path d="M208.553575,360.329239 L196.829327,369.869062" id="Stroke-2101"></path>
                        <path d="M209.366991,385.389381 L196.026814,392.499469" id="Stroke-2102"></path>
                        <path d="M209.925363,410.550761 L195.483239,415.028637" id="Stroke-2103"></path>
                        <path d="M210.254973,460.867876 L195.15869,460.102743" id="Stroke-2104"></path>
                        <path d="M210.095522,485.928212 L195.318531,482.737239" id="Stroke-2105"></path>
                        <path d="M208.686354,560.465381 L196.695381,551.260425" id="Stroke-2106"></path>
                        <path d="M208.00046,585.078903 L197.370372,574.328106" id="Stroke-2107"></path>
                        <path d="M207.234743,609.575611 L198.121292,597.516496" id="Stroke-2108"></path>
                        <path d="M206.405363,633.95531 L198.935097,620.815664" id="Stroke-2109"></path>
                        <path d="M180.467752,0.329610619 L176.087221,14.7931504" id="Stroke-2118"></path>
                        <path d="M179.898867,24.012708 L176.649487,38.7741239" id="Stroke-2119"></path>
                        <path d="M179.819044,286.169381 L176.723469,300.967788" id="Stroke-2120"></path>
                        <path d="M181.164354,310.416106 L175.411257,324.394867" id="Stroke-2121"></path>
                        <path d="M182.610513,335.040336 L173.991575,347.455735" id="Stroke-2122"></path>
                        <path d="M183.923894,360.031363 L172.703894,370.161097" id="Stroke-2123"></path>
                        <path d="M184.923628,385.261858 L171.721681,392.626991" id="Stroke-2124"></path>
                        <path d="M185.556372,410.571982 L171.104513,415.007027" id="Stroke-2125"></path>
                        <path d="M185.870018,461.059257 L170.79515,459.916425" id="Stroke-2126"></path>
                        <path d="M184.785398,535.942195 L171.859912,528.103965" id="Stroke-2127"></path>
                        <path d="M183.456053,585.243805 L173.160832,574.173717" id="Stroke-2128"></path>
                        <path d="M181.83954,634.061611 L174.741133,620.715593" id="Stroke-2129"></path>
                        <path d="M155.343752,0.143681416 L152.446761,14.9790796" id="Stroke-2140"></path>
                        <path d="M155.774407,310.081044 L152.026619,324.725646" id="Stroke-2141"></path>
                        <path d="M157.725788,334.715982 L150.111451,347.775805" id="Stroke-2142"></path>
                        <path d="M159.432637,359.909097 L148.436531,370.278301" id="Stroke-2143"></path>
                        <path d="M160.613044,385.378867 L147.282602,392.508425" id="Stroke-2144"></path>
                        <path d="M161.501221,436.243646 L146.410779,437.041876" id="Stroke-2145"></path>
                        <path d="M161.447876,461.46869 L146.458673,459.512053" id="Stroke-2146"></path>
                        <path d="M161.182124,486.53954 L146.724425,482.131752" id="Stroke-2147"></path>
                        <path d="M160.756726,511.466903 L147.143982,504.894159" id="Stroke-2148"></path>
                        <path d="M160.203611,536.261292 L147.681133,527.790319" id="Stroke-2149"></path>
                        <path d="M159.554903,560.927965 L148.319327,550.809912" id="Stroke-2150"></path>
                        <path d="M158.826566,585.467115 L149.03754,573.949239" id="Stroke-2151"></path>
                        <path d="M158.034177,609.889257 L149.808513,597.207133" id="Stroke-2152"></path>
                        <path d="M157.194088,634.194584 L150.633027,620.577947" id="Stroke-2153"></path>
                        <path d="M132.99,334.51915 L126.094071,347.972248" id="Stroke-2163"></path>
                        <path d="M135.239257,360.105929 L123.881027,370.085752" id="Stroke-2164"></path>
                        <path d="M136.499292,385.926531 L122.64708,391.971664" id="Stroke-2165"></path>
                        <path d="M137.036442,411.566265 L122.121221,414.032991" id="Stroke-2166"></path>
                        <path d="M136.956619,462.133363 L122.201044,458.862566" id="Stroke-2167"></path>
                        <path d="M136.600336,487.129841 L122.547593,481.557805" id="Stroke-2168"></path>
                        <path d="M136.111274,511.977381 L123.030035,504.400035" id="Stroke-2169"></path>
                        <path d="M135.515717,536.68669 L123.610407,527.370761" id="Stroke-2170"></path>
                        <path d="M134.840336,561.27354 L124.274496,550.46823" id="Stroke-2171"></path>
                        <path d="M134.096035,585.749027 L125.004,573.674336" id="Stroke-2172"></path>
                        <path d="M132.463558,634.354035 L126.603381,620.422" id="Stroke-2173"></path>
                        <path d="M108.716796,334.572496 L101.612549,347.918513" id="Stroke-2180"></path>
                        <path d="M111.572124,361.052319 L98.810177,369.155327" id="Stroke-2181"></path>
                        <path d="M112.555699,387.207982 L97.8487965,390.718248" id="Stroke-2182"></path>
                        <path d="M112.763044,412.799823 L97.6453451,412.82708" id="Stroke-2183"></path>
                        <path d="M112.635522,438.040832 L97.7728673,435.282071" id="Stroke-2184"></path>
                        <path d="M112.316425,463.048018 L98.0826195,457.964655" id="Stroke-2185"></path>
                        <path d="M111.875062,487.890106 L98.5173628,480.807274" id="Stroke-2186"></path>
                        <path d="M111.327398,512.599611 L99.0502301,503.784035" id="Stroke-2187"></path>
                        <path d="M110.705363,537.197168 L99.6605841,526.870796" id="Stroke-2188"></path>
                        <path d="M110.014018,561.682973 L100.341805,550.063858" id="Stroke-2189"></path>
                        <path d="M109.269717,586.067929 L101.075204,573.364389" id="Stroke-2190"></path>
                        <path d="M86.495823,336.27915 L75.1278584,346.243398" id="Stroke-2197"></path>
                        <path d="M88.2930088,363.945027 L73.3622124,366.322195" id="Stroke-2198"></path>
                        <path d="M88.3675752,389.536867 L73.2868673,388.431027" id="Stroke-2199"></path>
                        <path d="M88.1761947,414.597009 L73.4790265,411.067274" id="Stroke-2200"></path>
                        <path d="M87.8570973,439.439292 L73.7868319,433.910088" id="Stroke-2201"></path>
                        <path d="M87.4424071,464.153858 L74.1976283,456.88023" id="Stroke-2202"></path>
                        <path d="M86.9478938,488.772832 L74.6804602,479.945575" id="Stroke-2203"></path>
                        <path d="M86.3842655,513.306726 L75.234354,503.093274" id="Stroke-2204"></path>
                        <path d="M85.7513274,537.755345 L75.8552212,526.328973" id="Stroke-2205"></path>
                        <path d="M85.060177,562.11908 L76.5307965,549.639434" id="Stroke-2206"></path>
                        <path d="M84.3263894,586.39754 L77.2493982,573.039841" id="Stroke-2207"></path>
                        <path d="M63.1584956,392.482726 L49.7268142,385.543965" id="Stroke-2214"></path>
                        <path d="M62.9776283,416.644177 L49.9080708,409.057097" id="Stroke-2215"></path>
                        <path d="M62.6744956,440.965274 L50.2045841,432.414478" id="Stroke-2216"></path>
                        <path d="M62.2757699,465.323752 L50.594354,455.731363" id="Stroke-2217"></path>
                        <path d="M61.7972212,489.687487 L51.062,479.047664" id="Stroke-2218"></path>
                        <path d="M61.2548142,514.019097 L51.598177,502.390248" id="Stroke-2219"></path>
                        <path d="M60.6487434,538.30846 L52.1933451,525.780142" id="Stroke-2220"></path>
                        <path d="M59.9840708,562.544478 L52.8428319,549.225717" id="Stroke-2221"></path>
                        <path d="M59.2769558,586.711381 L53.5335929,572.732619" id="Stroke-2222"></path>
                        <path d="M36.9444248,394.795646 L27.1553982,383.27777" id="Stroke-2228"></path>
                        <path d="M37.1836991,418.420336 L26.9215752,407.31715" id="Stroke-2229"></path>
                        <path d="M37.0933628,442.332 L27.0123009,431.069168" id="Stroke-2230"></path>
                        <path d="M36.8221593,466.397858 L27.2726018,454.679451" id="Stroke-2231"></path>
                        <path d="M36.4339469,490.527575 L27.6553628,478.22315" id="Stroke-2232"></path>
                        <path d="M35.9553982,514.678513 L28.1288496,501.747186" id="Stroke-2233"></path>
                        <path d="M35.4022832,538.818743 L28.666,525.285823" id="Stroke-2234"></path>
                        <path d="M34.7907611,562.921982 L29.2654513,548.851717" id="Stroke-2235"></path>
                        <path d="M33.4349381,610.984584 L30.6002478,596.133611" id="Stroke-2236"></path>
                        <path d="M10.5228142,396.039912 L4.78529204,382.05531" id="Stroke-2243"></path>
                        <path d="M11.1024071,419.606 L4.21621239,406.152903" id="Stroke-2244"></path>
                        <path d="M11.2620531,443.358212 L4.06240708,430.064761" id="Stroke-2245"></path>
                        <path d="M11.1662655,467.243204 L4.15352212,453.848513" id="Stroke-2246"></path>
                        <path d="M10.9005133,491.208212 L4.41343363,477.558478" id="Stroke-2247"></path>
                        <path d="M10.5175575,515.210212 L4.79171681,501.225611" id="Stroke-2248"></path>
                        <path d="M9.5020531,563.214407 L5.78541593,548.565912" id="Stroke-2249"></path>
                        <path d="M404.861133,52.8270619 L390.557239,57.7235221" id="Stroke-2437"></path>
                        <path d="M404.967628,243.828142 L390.457363,248.076283" id="Stroke-2438"></path>
                        <path d="M405.100407,414.416336 L390.323416,411.242885" id="Stroke-2439"></path>
                        <path d="M401.378513,610.139239 L393.976389,596.962602" id="Stroke-2440"></path>
                        <path d="M380.237097,28.3622832 L366.427717,34.5086549" id="Stroke-2441"></path>
                        <path d="M379.949929,123.115699 L366.709044,130.416584" id="Stroke-2442"></path>
                        <path d="M376.525717,634.221062 L370.065894,620.555752" id="Stroke-2443"></path>
                        <path d="M355.065204,169.987381 L342.834761,178.867204" id="Stroke-2445"></path>
                        <path d="M355.974407,487.156319 L341.941133,481.52977" id="Stroke-2446"></path>
                        <path d="M330.212212,74.0588142 L318.924071,84.1087257" id="Stroke-2449"></path>
                        <path d="M329.712442,585.238549 L319.413327,574.174301" id="Stroke-2450"></path>
                        <path d="M306.545274,313.330035 L293.853416,321.540124" id="Stroke-2451"></path>
                        <path d="M306.938743,337.842513 L293.470071,344.707292" id="Stroke-2452"></path>
                        <path d="M279.655823,120.23915 L271.940248,133.240566" id="Stroke-2453"></path>
                        <path d="M282.410301,535.729593 L269.239504,528.311894" id="Stroke-2454"></path>
                        <path d="M228.727186,167.036265 L225.324,181.764584" id="Stroke-2456"></path>
                        <path d="M234.480478,485.869611 L219.682071,482.791558" id="Stroke-2457"></path>
                        <path d="M209.76046,510.882053 L195.64931,505.469664" id="Stroke-2458"></path>
                        <path d="M185.848796,435.860885 L170.81092,437.418407" id="Stroke-2459"></path>
                        <path d="M185.295876,511.105363 L171.359947,505.251027" id="Stroke-2460"></path>
                        <path d="M184.163168,560.651504 L172.466177,551.080531" id="Stroke-2461"></path>
                        <path d="M137.132035,436.956212 L122.026018,436.344885" id="Stroke-2463"></path>
                        <path d="M108.477522,610.346584 L101.846372,596.761097" id="Stroke-2464"></path>
                        <path d="M83.5501593,610.585858 L78.0092743,596.521434" id="Stroke-2465"></path>
                        <path d="M82.7472566,634.688903 L78.800885,620.098814" id="Stroke-2466"></path>
                    </g>
                    <g id="Pattern_Top" transform="translate(212.500000, 28.500000) scale(-1, 1) translate(-212.500000, -28.500000) " stroke-width="1.5">
                        <path d="M124.710991,0.0371858407 L123.254708,15.0789558" id="Stroke-6-Copy"></path>
                        <path d="M99.6453982,-2.93098879e-14 L99.5558407,15.1176991" id="Stroke-48-Copy"></path>
                        <path d="M2.18403073e-12,0.292424779 L4.15274336,14.8299469" id="Stroke-127-Copy"></path>
                        <path d="M24.8050973,0.186123894 L28.1070442,14.9358584" id="Stroke-147-Copy"></path>
                        <path d="M49.679115,0.0903362832 L51.9920354,15.0269735" id="Stroke-150-Copy"></path>
                        <path d="M74.6331504,0.0212212389 L75.8090796,15.0960885" id="Stroke-151-Copy"></path>
                        <path d="M200.072478,0.600814159 L194.190885,14.5270088" id="Stroke-1396-Copy"></path>
                        <path d="M424.035398,6.49759292 L409.083186,8.74626549" id="Stroke-1813-Copy"></path>
                        <path d="M423.992761,30.0850973 L409.126212,32.8243894" id="Stroke-1814-Copy"></path>
                        <path d="M423.950319,53.7148496 L409.163593,56.8513097" id="Stroke-1815-Copy"></path>
                        <path d="M399.475027,5.63102655 L384.888832,9.59297345" id="Stroke-1844-Copy"></path>
                        <path d="M374.818867,4.79619469 L360.785593,10.4110619" id="Stroke-1870-Copy"></path>
                        <path d="M350.072177,3.99854867 L336.778726,11.1981947" id="Stroke-1900-Copy"></path>
                        <path d="M325.230088,3.24879646 L312.857522,11.9261416" id="Stroke-1930-Copy"></path>
                        <path d="M300.313434,2.56290265 L289.009717,12.6011327" id="Stroke-1962-Copy"></path>
                        <path d="M275.327469,1.94612389 L265.234726,13.203115" id="Stroke-1996-Copy"></path>
                        <path d="M250.278035,1.41442478 L241.515027,13.7285841" id="Stroke-2029-Copy"></path>
                        <path d="M225.191027,0.962353982 L217.843416,14.1701416" id="Stroke-2060-Copy"></path>
                        <path d="M174.93777,0.329610619 L170.557239,14.7931504" id="Stroke-2118-Copy"></path>
                        <path d="M149.81377,0.143681416 L146.916779,14.9790796" id="Stroke-2140-Copy"></path>
                    </g>
                </g>
            </g>
        </g>
    </g>
</svg>