<?xml version="1.0" encoding="UTF-8"?>
<svg width="25px" height="25px" viewBox="0 0 25 25" version="1.1" xmlns="http://www.w3.org/2000/svg" xmlns:xlink="http://www.w3.org/1999/xlink">
    <!-- Generator: Sketch 55.1 (78136) - https://sketchapp.com -->
    <title>05 Icons/Categories/Human Resources</title>
    <desc>Created with Sketch.</desc>
    <g id="Icons" stroke="none" stroke-width="1" fill="none" fill-rule="evenodd">
        <g id="Medium_Icons_Hub" transform="translate(-338.000000, -1020.000000)" stroke="#FA8557">
            <g id="05-Icons/Categories/Human-Resources" transform="translate(338.500000, 1020.500000)">
                <g id="network" transform="translate(1.000000, 1.000000)">
                    <path d="M8.455,17.086 L5.212,18.48 C4.477,18.796 4,19.519 4,20.319 L4,22 L18,22 L18,20.319 C18,19.519 17.523,18.796 16.788,18.481 L13.537,17.093" id="Path" stroke-width="2"></path>
                    <circle id="Oval" stroke-width="2" stroke-linecap="square" cx="11" cy="2" r="2"></circle>
                    <circle id="Oval" stroke-width="2" stroke-linecap="square" cx="20" cy="7" r="2"></circle>
                    <circle id="Oval" stroke-width="2" stroke-linecap="square" cx="2" cy="7" r="2"></circle>
                    <path d="M11,18 L11,18 C8.791,18 7,16.209 7,14 L7,13 C7,10.791 8.791,9 11,9 L11,9 C13.209,9 15,10.791 15,13 L15,14 C15,16.209 13.209,18 11,18 Z" id="Path" stroke-width="2" stroke-linecap="square"></path>
                </g>
            </g>
        </g>
    </g>
</svg>