<?xml version="1.0" encoding="UTF-8"?>
<svg width="431px" height="469px" viewBox="0 0 431 469" version="1.1" xmlns="http://www.w3.org/2000/svg" xmlns:xlink="http://www.w3.org/1999/xlink">
    <!-- Generator: Sketch 53.2 (72643) - https://sketchapp.com -->
    <title>Pattern</title>
    <desc>Created with Sketch.</desc>
    <g id="Home" stroke="none" stroke-width="1" fill="none" fill-rule="evenodd">
        <g id="Homepage" transform="translate(-967.000000, -2385.000000)" stroke="#818795" stroke-width="2">
            <g id="Jobs" transform="translate(140.000000, 1993.000000)">
                <g id="Pattern" transform="translate(828.000000, 392.000000)">
                    <path d="M203.262867,72.0288142 L202.018796,87.0978407" id="Stroke-21"></path>
                    <path d="M178.845982,0.522389381 L177.681735,15.5972566" id="Stroke-30"></path>
                    <path d="M203.794566,24.4235398 L201.491381,39.3640708" id="Stroke-32"></path>
                    <path d="M203.193752,119.69269 L202.087912,134.767558" id="Stroke-37"></path>
                    <path d="M178.388655,24.3384602 L178.12777,39.4503186" id="Stroke-49"></path>
                    <path d="M203.156372,95.8553982 L202.118673,110.936106" id="Stroke-205"></path>
                    <path d="M153.519894,0.511681416 L154.238301,15.6079646" id="Stroke-374"></path>
                    <path d="M178.766159,191.193858 L177.761558,206.274566" id="Stroke-381"></path>
                    <path d="M128.230991,0.607469027 L130.756124,15.5110088" id="Stroke-398"></path>
                    <path d="M3.03619469,2.03785841 L12.1282301,14.1125487" id="Stroke-399"></path>
                    <path d="M27.8625133,1.71876106 L36.0570265,14.4223009" id="Stroke-421"></path>
                    <path d="M103.00069,0.804106195 L107.217681,15.3202124" id="Stroke-422"></path>
                    <path d="M77.8552743,1.07550442 L83.5986372,15.0542655" id="Stroke-433"></path>
                    <path d="M52.805646,1.38915044 L59.8826372,14.7468496" id="Stroke-434"></path>
                    <path d="M152.993451,24.3861593 L154.753451,39.4026195" id="Stroke-463"></path>
                    <path d="M2.29169912,26.5131504 L12.8575398,37.3184602" id="Stroke-487"></path>
                    <path d="M127.630177,24.5722832 L131.346814,39.2207788" id="Stroke-488"></path>
                    <path d="M178.000637,48.1757522 L178.504885,63.2817699" id="Stroke-510"></path>
                    <path d="M27.1180177,26.1037168 L36.7902301,37.7228319" id="Stroke-516"></path>
                    <path d="M102.341274,24.864708 L107.866584,38.9349735" id="Stroke-517"></path>
                    <path d="M77.1481593,25.2424071 L84.2893982,38.5611681" id="Stroke-523"></path>
                    <path d="M52.0718584,25.6678053 L60.6012389,38.1474513" id="Stroke-524"></path>
                    <path d="M152.525611,48.2925664 L155.210389,63.1649558" id="Stroke-549"></path>
                    <path d="M127.08777,48.5637699 L131.879097,62.8988142" id="Stroke-583"></path>
                    <path d="M1.61651327,51.1001947 L13.521823,60.4161239" id="Stroke-584"></path>
                    <path d="M177.702761,72.0235575 L178.798867,87.1023186" id="Stroke-592"></path>
                    <path d="M101.729752,48.9679469 L108.466035,62.5008673" id="Stroke-604"></path>
                    <path d="M26.4268673,50.5895221 L37.471646,60.9158938" id="Stroke-605"></path>
                    <path d="M76.4834867,49.4784248 L84.9369381,62.0067434" id="Stroke-618"></path>
                    <path d="M51.380708,50.0313451 L61.2768142,61.4577168" id="Stroke-619"></path>
                    <path d="M152.137398,72.2044248 L155.58731,86.9230088" id="Stroke-638"></path>
                    <path d="M177.522088,95.8766195 L178.978372,110.918389" id="Stroke-671"></path>
                    <path d="M1.02095575,75.8093097 L14.1021947,83.3866549" id="Stroke-673"></path>
                    <path d="M126.614478,72.5766726 L132.340319,86.5612743" id="Stroke-674"></path>
                    <path d="M25.8046372,75.1872743 L38.0818053,84.0028496" id="Stroke-701"></path>
                    <path d="M101.176832,73.108177 L109.003381,86.0395044" id="Stroke-702"></path>
                    <path d="M75.8772212,73.7675929 L85.5338584,85.3964425" id="Stroke-711"></path>
                    <path d="M50.7479646,74.4801593 L61.8978761,84.6955575" id="Stroke-712"></path>
                    <path d="M151.860938,96.1108319 L155.865717,110.685345" id="Stroke-721"></path>
                    <path d="M177.484708,119.714106 L179.01692,134.751982" id="Stroke-742"></path>
                    <path d="M0.531893805,100.657044 L14.5846372,106.22908" id="Stroke-757"></path>
                    <path d="M126.231717,96.5786726 L132.718796,110.228407" id="Stroke-758"></path>
                    <path d="M100.698283,97.259115 L109.476867,109.56354" id="Stroke-784"></path>
                    <path d="M25.2569735,99.8965841 L38.6146726,106.979416" id="Stroke-785"></path>
                    <path d="M151.722708,119.985115 L155.998106,134.485646" id="Stroke-795"></path>
                    <path d="M75.3350088,98.0993982 L86.0702301,108.739221" id="Stroke-798"></path>
                    <path d="M50.1843363,99.0138584 L62.4517699,107.841115" id="Stroke-799"></path>
                    <path d="M177.638903,143.529982 L178.861558,158.599009" id="Stroke-806"></path>
                    <path d="M203.486177,48.2181947 L201.800159,63.2385487" id="Stroke-821"></path>
                    <path d="M125.96577,120.543487 L132.978513,133.938177" id="Stroke-836"></path>
                    <path d="M0.175610619,125.653327 L14.9311858,128.924124" id="Stroke-837"></path>
                    <path d="M178.048336,167.346053 L178.463027,182.452071" id="Stroke-859"></path>
                    <path d="M151.775858,143.801186 L155.944177,158.332867" id="Stroke-862"></path>
                    <path d="M24.8156106,124.738867 L39.0494159,129.82223" id="Stroke-867"></path>
                    <path d="M100.310071,121.389027 L109.859628,133.107434" id="Stroke-868"></path>
                    <path d="M74.8562655,122.462938 L86.5376814,132.055327" id="Stroke-884"></path>
                    <path d="M49.689823,123.632832 L62.9346018,130.90646" id="Stroke-885"></path>
                    <path d="M0,150.830673 L15.1060177,151.442" id="Stroke-905"></path>
                    <path d="M125.870177,144.428673 L133.069823,157.722124" id="Stroke-906"></path>
                    <path d="M152.105469,167.553398 L155.625469,182.250566" id="Stroke-918"></path>
                    <path d="M24.496708,149.745858 L39.3593628,152.504619" id="Stroke-938"></path>
                    <path d="M100.038867,145.454885 L110.119929,156.717717" id="Stroke-939"></path>
                    <path d="M49.2751327,148.347398 L63.3453982,153.876602" id="Stroke-953"></path>
                    <path d="M74.4575398,146.821416 L86.9274513,155.372212" id="Stroke-954"></path>
                    <path d="M203.406354,143.545947 L201.874142,158.583823" id="Stroke-959"></path>
                    <path d="M152.823292,191.247009 L154.924,206.220637" id="Stroke-964"></path>
                    <path d="M126.029628,168.18069 L132.915823,181.633788" id="Stroke-967"></path>
                    <path d="M0.0957876106,176.220425 L15.0110088,173.753699" id="Stroke-968"></path>
                    <path d="M99.948531,169.366549 L110.210655,180.469735" id="Stroke-1009"></path>
                    <path d="M24.3689912,174.986867 L39.4866903,174.959611" id="Stroke-1010"></path>
                    <path d="M126.609221,191.746973 L132.346743,205.731575" id="Stroke-1022"></path>
                    <path d="M0.632743363,201.860354 L14.4849558,195.815221" id="Stroke-1023"></path>
                    <path d="M74.1544071,171.142513 L87.2239646,178.729593" id="Stroke-1024"></path>
                    <path d="M48.9560354,173.189681 L63.6532035,176.719416" id="Stroke-1025"></path>
                    <path d="M1.89297345,227.680956 L13.2512035,217.701133" id="Stroke-1062"></path>
                    <path d="M127.906637,215.180088 L131.076195,229.96292" id="Stroke-1063"></path>
                    <path d="M24.576531,200.578903 L39.2834336,197.068637" id="Stroke-1066"></path>
                    <path d="M100.187805,192.991044 L109.976832,204.50892" id="Stroke-1067"></path>
                    <path d="M6.96037168,277.912991 L8.27842478,262.853699" id="Stroke-1084"></path>
                    <path d="M4.14223009,253.26754 L11.0381593,239.814442" id="Stroke-1085"></path>
                    <path d="M73.9737345,195.304159 L87.4054159,202.24292" id="Stroke-1086"></path>
                    <path d="M48.7646549,198.250018 L63.8453628,199.355858" id="Stroke-1087"></path>
                    <path d="M130.171858,238.873699 L128.853805,253.932991" id="Stroke-1090"></path>
                    <path d="M154.040885,215.009929 L153.721593,230.127628" id="Stroke-1104"></path>
                    <path d="M101.187345,216.110513 L108.998319,229.047681" id="Stroke-1106"></path>
                    <path d="M25.5601062,226.734372 L38.3220531,218.631363" id="Stroke-1107"></path>
                    <path d="M28.4154336,253.214389 L35.5196814,239.868372" id="Stroke-1138"></path>
                    <path d="M104.053381,238.921593 L106.185239,253.88354" id="Stroke-1139"></path>
                    <path d="M74.0535575,218.987257 L87.3255929,226.223894" id="Stroke-1144"></path>
                    <path d="M48.8390265,223.841858 L63.769823,221.46469" id="Stroke-1145"></path>
                    <path d="M50.6362124,251.50754 L62.004177,241.543292" id="Stroke-1183"></path>
                    <path d="M75.856,240.623186 L85.5593628,252.215044" id="Stroke-1184"></path>
                    <path d="M429.421894,30.1287434 L414.751982,33.7713982" id="Stroke-1374"></path>
                    <path d="M429.549416,173.748053 L414.628354,176.177788" id="Stroke-1375"></path>
                    <path d="M429.30469,344.086265 L414.874248,339.586973" id="Stroke-1376"></path>
                    <path d="M404.760088,29.2197345 L390.658673,34.6652212" id="Stroke-1378"></path>
                    <path d="M404.739062,52.9984248 L390.680478,58.554885" id="Stroke-1379"></path>
                    <path d="M403.340602,466.058938 L392.05246,456.009027" id="Stroke-1380"></path>
                    <path d="M329.994354,74.3259646 L319.136478,84.8431327" id="Stroke-1388"></path>
                    <path d="M331.387558,440.466903 L317.774814,433.894159" id="Stroke-1389"></path>
                    <path d="M254.547788,144.194655 L248.284602,157.949522" id="Stroke-1392"></path>
                    <path d="M258.992956,365.020336 L243.92977,366.264407" id="Stroke-1393"></path>
                    <path d="M210.212531,364.733168 L195.201912,366.545735" id="Stroke-1397"></path>
                    <path d="M209.281912,464.729593 L196.116956,457.306053" id="Stroke-1398"></path>
                    <path d="M185.667929,415.140814 L170.992177,411.525416" id="Stroke-1402"></path>
                    <path d="M161.261752,339.869664 L146.644407,343.71869" id="Stroke-1404"></path>
                    <path d="M10.0442655,468.22292 L5.25293805,453.887876" id="Stroke-1420"></path>
                    <path d="M429.448177,6.3979469 L414.729593,9.83812389" id="Stroke-1816"></path>
                    <path d="M429.411186,53.912885 L414.766584,57.6567788" id="Stroke-1817"></path>
                    <path d="M429.411186,77.7556283 L414.76269,81.4839469" id="Stroke-1818"></path>
                    <path d="M429.432212,101.656584 L414.746726,105.250566" id="Stroke-1819"></path>
                    <path d="M429.458885,125.621593 L414.714991,128.95469" id="Stroke-1820"></path>
                    <path d="M429.501327,149.650071 L414.677611,152.595735" id="Stroke-1821"></path>
                    <path d="M429.597115,197.909699 L414.586496,199.691115" id="Stroke-1822"></path>
                    <path d="M429.634496,222.140265 L414.549894,223.135133" id="Stroke-1823"></path>
                    <path d="M429.65046,246.429628 L414.532761,246.525027" id="Stroke-1824"></path>
                    <path d="M429.634496,270.777204 L414.544053,269.852425" id="Stroke-1825"></path>
                    <path d="M429.575894,295.172867 L414.602265,293.136407" id="Stroke-1826"></path>
                    <path d="M429.469593,319.61623 L414.708177,316.37269" id="Stroke-1827"></path>
                    <path d="M429.065611,368.572265 L415.102425,362.782177" id="Stroke-1828"></path>
                    <path d="M428.757027,393.058265 L415.405168,385.969593" id="Stroke-1829"></path>
                    <path d="M428.374265,417.539009 L415.783646,409.175115" id="Stroke-1830"></path>
                    <path d="M427.916938,441.992885 L416.229681,432.400496" id="Stroke-1831"></path>
                    <path d="M427.385044,466.40977 L416.751062,455.662867" id="Stroke-1832"></path>
                    <path d="M404.802726,5.49925664 L390.615646,10.7208496" id="Stroke-1846"></path>
                    <path d="M404.739062,76.8357168 L390.680478,82.3863363" id="Stroke-1847"></path>
                    <path d="M404.76554,100.731416 L390.654389,106.155487" id="Stroke-1848"></path>
                    <path d="M404.813434,124.69623 L390.604938,129.865257" id="Stroke-1849"></path>
                    <path d="M404.882549,148.724903 L390.541664,153.504549" id="Stroke-1850"></path>
                    <path d="M405.057965,197.005752 L390.366637,200.578319" id="Stroke-1851"></path>
                    <path d="M405.143044,221.252283 L390.280389,224.00715" id="Stroke-1852"></path>
                    <path d="M405.217611,245.573575 L390.206991,247.364726" id="Stroke-1853"></path>
                    <path d="M405.265504,269.958531 L390.165327,270.661363" id="Stroke-1854"></path>
                    <path d="M405.270566,294.396442 L390.158708,293.896088" id="Stroke-1855"></path>
                    <path d="M405.217611,318.887894 L390.212832,317.085062" id="Stroke-1856"></path>
                    <path d="M404.914478,367.966195 L390.509345,363.377345" id="Stroke-1857"></path>
                    <path d="M404.643274,392.515858 L390.775487,386.501876" id="Stroke-1858"></path>
                    <path d="M404.292442,417.060265 L391.121646,409.642566" id="Stroke-1859"></path>
                    <path d="M403.856336,441.578195 L391.546071,432.805451" id="Stroke-1860"></path>
                    <path d="M380.045717,4.63269027 L366.614035,11.5656106" id="Stroke-1872"></path>
                    <path d="M379.981858,28.3477168 L366.678673,35.5201062" id="Stroke-1873"></path>
                    <path d="M379.944673,75.9477345 L366.715469,83.258354" id="Stroke-1874"></path>
                    <path d="M379.976602,99.838177 L366.68315,107.037823" id="Stroke-1875"></path>
                    <path d="M380.040265,123.792283 L366.620265,130.746619" id="Stroke-1876"></path>
                    <path d="M380.14131,147.82115 L366.524673,154.393894" id="Stroke-1877"></path>
                    <path d="M380.26377,171.929451 L366.401823,177.959009" id="Stroke-1878"></path>
                    <path d="M380.407257,196.112319 L366.263009,201.450726" id="Stroke-1879"></path>
                    <path d="M380.550743,220.380265 L366.120301,224.862035" id="Stroke-1880"></path>
                    <path d="M380.694425,244.722779 L365.981681,248.194106" id="Stroke-1881"></path>
                    <path d="M380.805982,269.14492 L365.869345,271.457841" id="Stroke-1882"></path>
                    <path d="M380.880354,293.63092 L365.795752,294.651097" id="Stroke-1883"></path>
                    <path d="M380.896319,318.175327 L365.78446,317.787894" id="Stroke-1884"></path>
                    <path d="M380.837912,342.757115 L365.837027,340.886142" id="Stroke-1885"></path>
                    <path d="M380.699681,367.370442 L365.971363,363.957522" id="Stroke-1886"></path>
                    <path d="M380.47092,391.989416 L366.194283,387.022867" id="Stroke-1887"></path>
                    <path d="M380.157274,416.597681 L366.50754,410.100867" id="Stroke-1888"></path>
                    <path d="M379.747841,441.179469 L366.906071,433.199115" id="Stroke-1889"></path>
                    <path d="M379.248071,465.718619 L367.395327,456.338442" id="Stroke-1890"></path>
                    <path d="M355.182212,3.81382301 L342.718142,12.3685133" id="Stroke-1903"></path>
                    <path d="M355.091876,27.5233982 L342.803027,36.3292389" id="Stroke-1904"></path>
                    <path d="M355.038531,51.2863186 L342.856761,60.2342832" id="Stroke-1905"></path>
                    <path d="M355.027823,75.1021947 L342.867469,84.0832566" id="Stroke-1906"></path>
                    <path d="M355.144832,122.936425 L342.754743,131.592354" id="Stroke-1907"></path>
                    <path d="M355.272549,146.959646 L342.627416,155.237876" id="Stroke-1908"></path>
                    <path d="M355.442708,171.06269 L342.462708,178.809416" id="Stroke-1909"></path>
                    <path d="M355.639345,195.251009 L342.266071,202.29685" id="Stroke-1910"></path>
                    <path d="M355.857593,219.524212 L342.059894,225.697841" id="Stroke-1911"></path>
                    <path d="M356.070195,243.893204 L341.846124,249.007717" id="Stroke-1912"></path>
                    <path d="M356.261575,268.347274 L341.655912,272.233292" id="Stroke-1913"></path>
                    <path d="M356.41577,292.875717 L341.506389,295.385274" id="Stroke-1914"></path>
                    <path d="M356.506106,317.473469 L341.421504,318.47223" id="Stroke-1915"></path>
                    <path d="M356.516814,342.11892 L341.410796,341.513434" id="Stroke-1916"></path>
                    <path d="M356.431735,366.796301 L341.489257,364.520372" id="Stroke-1917"></path>
                    <path d="M356.256319,391.478938 L341.66623,387.522832" id="Stroke-1918"></path>
                    <path d="M355.586389,440.807221 L342.320195,433.564743" id="Stroke-1919"></path>
                    <path d="M355.107646,465.404779 L342.787646,456.647611" id="Stroke-1920"></path>
                    <path d="M330.095398,26.7629381 L319.040885,37.0737345" id="Stroke-1933"></path>
                    <path d="M330.015575,50.5153451 L319.114867,60.9857876" id="Stroke-1934"></path>
                    <path d="M330.03154,98.1949912 L319.103575,108.644018" id="Stroke-1935"></path>
                    <path d="M330.127327,122.133327 L319.008566,132.374035" id="Stroke-1936"></path>
                    <path d="M330.281327,146.146035 L318.854956,156.036301" id="Stroke-1937"></path>
                    <path d="M330.499381,170.238566 L318.642743,179.618743" id="Stroke-1938"></path>
                    <path d="M330.760071,194.421434 L318.387504,203.104619" id="Stroke-1939"></path>
                    <path d="M331.052496,218.705345 L318.099752,226.500743" id="Stroke-1940"></path>
                    <path d="M331.355434,243.090301 L317.806938,249.795434" id="Stroke-1941"></path>
                    <path d="M331.637345,267.576301 L317.526195,272.98869" id="Stroke-1942"></path>
                    <path d="M331.881876,292.152637 L317.285947,296.099009" id="Stroke-1943"></path>
                    <path d="M332.05223,316.80354 L317.115593,319.132035" id="Stroke-1944"></path>
                    <path d="M332.137115,341.512655 L317.036938,342.108407" id="Stroke-1945"></path>
                    <path d="M332.12115,366.25915 L317.052124,365.04623" id="Stroke-1946"></path>
                    <path d="M331.988177,391.011097 L317.180035,387.97977" id="Stroke-1947"></path>
                    <path d="M331.743646,415.757593 L317.424177,410.923434" id="Stroke-1948"></path>
                    <path d="M330.919522,465.128319 L318.227664,456.91823" id="Stroke-1949"></path>
                    <path d="M305.152071,2.37817699 L295.218973,13.7792389" id="Stroke-1965"></path>
                    <path d="M304.992619,26.0772389 L295.372973,37.7430796" id="Stroke-1966"></path>
                    <path d="M304.886319,49.8292566 L295.480832,61.6605841" id="Stroke-1967"></path>
                    <path d="M304.843681,73.6293628 L295.521912,85.5288319" id="Stroke-1968"></path>
                    <path d="M304.875611,97.4878761 L295.49154,109.340619" id="Stroke-1969"></path>
                    <path d="M304.981912,121.404796 L295.389522,133.086212" id="Stroke-1970"></path>
                    <path d="M305.168035,145.401735 L295.203788,156.769699" id="Stroke-1971"></path>
                    <path d="M305.428531,169.478301 L294.942513,180.363434" id="Stroke-1972"></path>
                    <path d="M305.763593,193.65046 L294.619522,203.865858" id="Stroke-1973"></path>
                    <path d="M306.141097,217.934372 L294.245522,227.260035" id="Stroke-1974"></path>
                    <path d="M307.284319,291.466743 L293.130336,296.774" id="Stroke-1975"></path>
                    <path d="M307.555522,316.176053 L292.864195,319.744726" id="Stroke-1976"></path>
                    <path d="M307.720425,340.954478 L292.698124,342.656071" id="Stroke-1977"></path>
                    <path d="M307.768124,365.770088 L292.656265,365.524779" id="Stroke-1978"></path>
                    <path d="M307.688301,390.596407 L292.730248,388.384726" id="Stroke-1979"></path>
                    <path d="M307.475699,415.412018 L292.938177,411.265115" id="Stroke-1980"></path>
                    <path d="M307.140832,440.185186 L293.267204,434.177044" id="Stroke-1981"></path>
                    <path d="M306.688761,464.899752 L293.708761,457.147186" id="Stroke-1982"></path>
                    <path d="M280.001398,1.78787611 L271.606354,14.3570796" id="Stroke-1998"></path>
                    <path d="M279.799504,25.4921947 L271.801628,38.3183894" id="Stroke-1999"></path>
                    <path d="M279.586708,73.0338053 L272.009363,86.1150442" id="Stroke-2000"></path>
                    <path d="M279.602673,96.876354 L271.994177,109.940071" id="Stroke-2001"></path>
                    <path d="M279.708973,120.772248 L271.886319,133.709416" id="Stroke-2002"></path>
                    <path d="M279.92177,144.742319 L271.680531,157.412761" id="Stroke-2003"></path>
                    <path d="M280.235416,168.792212 L271.371168,181.03823" id="Stroke-2004"></path>
                    <path d="M280.64485,192.943345 L270.972637,204.56246" id="Stroke-2005"></path>
                    <path d="M281.123398,217.211292 L270.49915,227.967929" id="Stroke-2006"></path>
                    <path d="M281.644389,241.617469 L269.988283,251.241009" id="Stroke-2007"></path>
                    <path d="M282.165575,266.156619 L269.483451,274.382283" id="Stroke-2008"></path>
                    <path d="M282.633416,290.828549 L269.020673,297.395451" id="Stroke-2009"></path>
                    <path d="M283.016372,315.601717 L268.64823,320.307381" id="Stroke-2010"></path>
                    <path d="M283.271611,340.454513 L268.393381,343.145133" id="Stroke-2011"></path>
                    <path d="M283.388619,365.349947 L268.282602,365.934018" id="Stroke-2012"></path>
                    <path d="M283.35669,390.256088 L268.31492,388.723876" id="Stroke-2013"></path>
                    <path d="M283.175823,415.130106 L268.49423,411.536124" id="Stroke-2014"></path>
                    <path d="M282.85692,439.967133 L268.804177,434.389257" id="Stroke-2015"></path>
                    <path d="M254.776354,1.29881416 L248.055646,14.8356283" id="Stroke-2031"></path>
                    <path d="M254.521115,25.0083894 L248.310496,38.7905133" id="Stroke-2032"></path>
                    <path d="M254.334991,48.7606018 L248.49623,62.7082124" id="Stroke-2033"></path>
                    <path d="M254.223434,72.5552566 L248.596885,86.5826903" id="Stroke-2034"></path>
                    <path d="M254.218177,96.3820354 L248.60915,110.419204" id="Stroke-2035"></path>
                    <path d="M254.319027,120.26177 L248.507522,134.215221" id="Stroke-2036"></path>
                    <path d="M254.909327,168.202106 L247.927735,181.612372" id="Stroke-2037"></path>
                    <path d="M255.398584,192.315858 L247.449381,205.173204" id="Stroke-2038"></path>
                    <path d="M255.994142,216.562584 L246.865115,228.606124" id="Stroke-2039"></path>
                    <path d="M256.658814,240.958053 L246.215628,251.884071" id="Stroke-2040"></path>
                    <path d="M257.328743,265.523876 L245.555823,275.005292" id="Stroke-2041"></path>
                    <path d="M257.945522,290.24915 L244.949947,297.964726" id="Stroke-2042"></path>
                    <path d="M258.456,315.101947 L244.455823,320.802478" id="Stroke-2043"></path>
                    <path d="M258.807027,340.040018 L244.104018,343.554177" id="Stroke-2044"></path>
                    <path d="M258.998212,390.00085 L243.917504,388.974832" id="Stroke-2045"></path>
                    <path d="M258.838761,414.944177 L244.073451,411.716212" id="Stroke-2046"></path>
                    <path d="M258.530372,439.828708 L244.376389,434.521451" id="Stroke-2047"></path>
                    <path d="M258.089009,464.639062 L244.811133,457.402425" id="Stroke-2048"></path>
                    <path d="M229.498159,0.921309735 L224.568602,15.2096283" id="Stroke-2063"></path>
                    <path d="M229.184319,24.6521062 L224.87777,39.1409558" id="Stroke-2064"></path>
                    <path d="M228.934531,48.4202832 L225.122496,63.043469" id="Stroke-2065"></path>
                    <path d="M228.780336,72.2149381 L225.275912,86.9179469" id="Stroke-2066"></path>
                    <path d="M228.812265,119.889522 L225.243593,134.575009" id="Stroke-2067"></path>
                    <path d="M229.040832,143.785221 L225.014637,158.353894" id="Stroke-2068"></path>
                    <path d="M229.445009,167.739522 L224.622531,182.064832" id="Stroke-2069"></path>
                    <path d="M230.019345,191.794673 L224.057929,205.683876" id="Stroke-2070"></path>
                    <path d="M230.747681,215.988248 L223.341664,229.164885" id="Stroke-2071"></path>
                    <path d="M231.58777,240.367947 L222.521044,252.464053" id="Stroke-2072"></path>
                    <path d="M232.449274,264.954796 L221.677062,275.563469" id="Stroke-2073"></path>
                    <path d="M233.241469,289.743929 L220.894212,298.458265" id="Stroke-2074"></path>
                    <path d="M233.895628,314.687257 L220.257575,321.205487" id="Stroke-2075"></path>
                    <path d="M234.352761,339.726177 L219.809398,343.857504" id="Stroke-2076"></path>
                    <path d="M234.592035,364.802283 L219.571681,366.476619" id="Stroke-2077"></path>
                    <path d="M234.634673,389.862619 L219.534496,389.107221" id="Stroke-2078"></path>
                    <path d="M234.166637,439.796973 L219.991239,434.553965" id="Stroke-2079"></path>
                    <path d="M233.714761,464.633805 L220.436885,457.406903" id="Stroke-2080"></path>
                    <path d="M204.177327,0.660619469 L201.11485,15.4648673" id="Stroke-2095"></path>
                    <path d="M203.826496,167.436389 L201.464903,182.367186" id="Stroke-2096"></path>
                    <path d="M204.485717,191.401204 L200.821646,206.067221" id="Stroke-2097"></path>
                    <path d="M205.368442,215.514956 L199.950212,229.626106" id="Stroke-2098"></path>
                    <path d="M206.421327,239.852212 L198.917965,252.970442" id="Stroke-2099"></path>
                    <path d="M207.532619,264.460478 L197.829257,276.046496" id="Stroke-2100"></path>
                    <path d="M208.553575,289.329239 L196.829327,298.869062" id="Stroke-2101"></path>
                    <path d="M209.366991,314.389381 L196.026814,321.499469" id="Stroke-2102"></path>
                    <path d="M209.925363,339.550761 L195.483239,344.028637" id="Stroke-2103"></path>
                    <path d="M210.254973,389.867876 L195.15869,389.102743" id="Stroke-2104"></path>
                    <path d="M210.095522,414.928212 L195.318531,411.737239" id="Stroke-2105"></path>
                    <path d="M179.819044,215.169381 L176.723469,229.967788" id="Stroke-2120"></path>
                    <path d="M181.164354,239.416106 L175.411257,253.394867" id="Stroke-2121"></path>
                    <path d="M182.610513,264.040336 L173.991575,276.455735" id="Stroke-2122"></path>
                    <path d="M183.923894,289.031363 L172.703894,299.161097" id="Stroke-2123"></path>
                    <path d="M184.923628,314.261858 L171.721681,321.626991" id="Stroke-2124"></path>
                    <path d="M185.556372,339.571982 L171.104513,344.007027" id="Stroke-2125"></path>
                    <path d="M185.870018,390.059257 L170.79515,388.916425" id="Stroke-2126"></path>
                    <path d="M184.785398,464.942195 L171.859912,457.103965" id="Stroke-2127"></path>
                    <path d="M155.774407,239.081044 L152.026619,253.725646" id="Stroke-2141"></path>
                    <path d="M157.725788,263.715982 L150.111451,276.775805" id="Stroke-2142"></path>
                    <path d="M159.432637,288.909097 L148.436531,299.278301" id="Stroke-2143"></path>
                    <path d="M160.613044,314.378867 L147.282602,321.508425" id="Stroke-2144"></path>
                    <path d="M161.501221,365.243646 L146.410779,366.041876" id="Stroke-2145"></path>
                    <path d="M161.447876,390.46869 L146.458673,388.512053" id="Stroke-2146"></path>
                    <path d="M161.182124,415.53954 L146.724425,411.131752" id="Stroke-2147"></path>
                    <path d="M160.756726,440.466903 L147.143982,433.894159" id="Stroke-2148"></path>
                    <path d="M160.203611,465.261292 L147.681133,456.790319" id="Stroke-2149"></path>
                    <path d="M132.99,263.51915 L126.094071,276.972248" id="Stroke-2163"></path>
                    <path d="M135.239257,289.105929 L123.881027,299.085752" id="Stroke-2164"></path>
                    <path d="M136.499292,314.926531 L122.64708,320.971664" id="Stroke-2165"></path>
                    <path d="M137.036442,340.566265 L122.121221,343.032991" id="Stroke-2166"></path>
                    <path d="M136.956619,391.133363 L122.201044,387.862566" id="Stroke-2167"></path>
                    <path d="M136.600336,416.129841 L122.547593,410.557805" id="Stroke-2168"></path>
                    <path d="M136.111274,440.977381 L123.030035,433.400035" id="Stroke-2169"></path>
                    <path d="M135.515717,465.68669 L123.610407,456.370761" id="Stroke-2170"></path>
                    <path d="M108.716796,263.572496 L101.612549,276.918513" id="Stroke-2180"></path>
                    <path d="M111.572124,290.052319 L98.810177,298.155327" id="Stroke-2181"></path>
                    <path d="M112.555699,316.207982 L97.8487965,319.718248" id="Stroke-2182"></path>
                    <path d="M112.763044,341.799823 L97.6453451,341.82708" id="Stroke-2183"></path>
                    <path d="M112.635522,367.040832 L97.7728673,364.282071" id="Stroke-2184"></path>
                    <path d="M112.316425,392.048018 L98.0826195,386.964655" id="Stroke-2185"></path>
                    <path d="M111.875062,416.890106 L98.5173628,409.807274" id="Stroke-2186"></path>
                    <path d="M111.327398,441.599611 L99.0502301,432.784035" id="Stroke-2187"></path>
                    <path d="M110.705363,466.197168 L99.6605841,455.870796" id="Stroke-2188"></path>
                    <path d="M86.495823,265.27915 L75.1278584,275.243398" id="Stroke-2197"></path>
                    <path d="M88.2930088,292.945027 L73.3622124,295.322195" id="Stroke-2198"></path>
                    <path d="M88.3675752,318.536867 L73.2868673,317.431027" id="Stroke-2199"></path>
                    <path d="M88.1761947,343.597009 L73.4790265,340.067274" id="Stroke-2200"></path>
                    <path d="M87.8570973,368.439292 L73.7868319,362.910088" id="Stroke-2201"></path>
                    <path d="M87.4424071,393.153858 L74.1976283,385.88023" id="Stroke-2202"></path>
                    <path d="M86.9478938,417.772832 L74.6804602,408.945575" id="Stroke-2203"></path>
                    <path d="M86.3842655,442.306726 L75.234354,432.093274" id="Stroke-2204"></path>
                    <path d="M85.7513274,466.755345 L75.8552212,455.328973" id="Stroke-2205"></path>
                    <path d="M61.2762301,276.163699 L51.5728673,264.571841" id="Stroke-2212"></path>
                    <path d="M63.0786726,297.799628 L49.8066372,290.562991" id="Stroke-2213"></path>
                    <path d="M63.1584956,321.482726 L49.7268142,314.543965" id="Stroke-2214"></path>
                    <path d="M62.9776283,345.644177 L49.9080708,338.057097" id="Stroke-2215"></path>
                    <path d="M62.6744956,369.965274 L50.2045841,361.414478" id="Stroke-2216"></path>
                    <path d="M62.2757699,394.323752 L50.594354,384.731363" id="Stroke-2217"></path>
                    <path d="M61.7972212,418.687487 L51.062,408.047664" id="Stroke-2218"></path>
                    <path d="M61.2548142,443.019097 L51.598177,431.390248" id="Stroke-2219"></path>
                    <path d="M60.6487434,467.30846 L52.1933451,454.780142" id="Stroke-2220"></path>
                    <path d="M33.0786549,277.865097 L30.9467965,262.90315" id="Stroke-2226"></path>
                    <path d="M35.9446903,300.676177 L28.1337168,287.739009" id="Stroke-2227"></path>
                    <path d="M36.9444248,323.795646 L27.1553982,312.27777" id="Stroke-2228"></path>
                    <path d="M37.1836991,347.420336 L26.9215752,336.31715" id="Stroke-2229"></path>
                    <path d="M37.0933628,371.332 L27.0123009,360.069168" id="Stroke-2230"></path>
                    <path d="M36.8221593,395.397858 L27.2726018,383.679451" id="Stroke-2231"></path>
                    <path d="M36.4339469,419.527575 L27.6553628,407.22315" id="Stroke-2232"></path>
                    <path d="M35.9553982,443.678513 L28.1288496,430.747186" id="Stroke-2233"></path>
                    <path d="M35.4022832,467.818743 L28.666,454.285823" id="Stroke-2234"></path>
                    <path d="M9.22559292,301.606796 L6.0560354,286.823965" id="Stroke-2242"></path>
                    <path d="M10.5228142,325.039912 L4.78529204,311.05531" id="Stroke-2243"></path>
                    <path d="M11.1024071,348.606 L4.21621239,335.152903" id="Stroke-2244"></path>
                    <path d="M11.2620531,372.358212 L4.06240708,359.064761" id="Stroke-2245"></path>
                    <path d="M11.1662655,396.243204 L4.15352212,382.848513" id="Stroke-2246"></path>
                    <path d="M10.9005133,420.208212 L4.41343363,406.558478" id="Stroke-2247"></path>
                    <path d="M10.5175575,444.210212 L4.79171681,430.225611" id="Stroke-2248"></path>
                    <path d="M404.967628,172.828142 L390.457363,177.076283" id="Stroke-2438"></path>
                    <path d="M405.100407,343.416336 L390.323416,340.242885" id="Stroke-2439"></path>
                    <path d="M379.949929,52.1156991 L366.709044,59.4165841" id="Stroke-2442"></path>
                    <path d="M355.065204,98.9873805 L342.834761,107.867204" id="Stroke-2445"></path>
                    <path d="M355.974407,416.156319 L341.941133,410.52977" id="Stroke-2446"></path>
                    <path d="M330.212212,3.05881416 L318.924071,13.1087257" id="Stroke-2449"></path>
                    <path d="M306.545274,242.330035 L293.853416,250.540124" id="Stroke-2451"></path>
                    <path d="M306.938743,266.842513 L293.470071,273.707292" id="Stroke-2452"></path>
                    <path d="M279.655823,49.2391504 L271.940248,62.2405664" id="Stroke-2453"></path>
                    <path d="M282.410301,464.729593 L269.239504,457.311894" id="Stroke-2454"></path>
                    <path d="M228.727186,96.0362655 L225.324,110.764584" id="Stroke-2456"></path>
                    <path d="M234.480478,414.869611 L219.682071,411.791558" id="Stroke-2457"></path>
                    <path d="M209.76046,439.882053 L195.64931,434.469664" id="Stroke-2458"></path>
                    <path d="M185.848796,364.860885 L170.81092,366.418407" id="Stroke-2459"></path>
                    <path d="M185.295876,440.105363 L171.359947,434.251027" id="Stroke-2460"></path>
                    <path d="M137.132035,365.956212 L122.026018,365.344885" id="Stroke-2463"></path>
                </g>
            </g>
        </g>
    </g>
</svg>