<?xml version="1.0" encoding="UTF-8"?>
<svg width="24px" height="25px" viewBox="0 0 24 25" version="1.1" xmlns="http://www.w3.org/2000/svg" xmlns:xlink="http://www.w3.org/1999/xlink">
    <!-- Generator: Sketch 55.1 (78136) - https://sketchapp.com -->
    <title>05 Icons/Categories/Design</title>
    <desc>Created with Sketch.</desc>
    <g id="Icons" stroke="none" stroke-width="1" fill="none" fill-rule="evenodd">
        <g id="Medium_Icons_Hub" transform="translate(-540.000000, -825.000000)" stroke="#FA8557">
            <g id="05-Icons/Categories/Design" transform="translate(540.000000, 826.000000)">
                <g id="web-design" transform="translate(1.000000, 0.000000)">
                    <path d="M19,7 L22,7" id="Path" stroke-width="2"></path>
                    <path d="M0,7 L11.4,7" id="Path" stroke-width="2"></path>
                    <polyline id="Path" stroke-width="2" points="19.3 3 22 3 22 23 0 23 0 3 15.4 3"></polyline>
                    <path d="M5,3 L5,7" id="Path" stroke-width="2" stroke-linecap="square"></path>
                    <path d="M11.6,10.8 L9.6,8.8 L17,1.4 C17.6,0.8 18.4,0.8 19,1.4 L19,1.4 C19.6,2 19.6,2.8 19,3.4 L11.6,10.8 Z" id="Path" stroke-width="2" stroke-linecap="square"></path>
                    <path d="M5.8,11.8 C6.6,11 7.8,11 8.6,11.8 C9.4,12.6 9.4,13.8 8.6,14.6 C7.8,15.4 5.1,15.3 5.1,15.3 C5.1,15.3 5,12.5 5.8,11.8 Z" id="Path" stroke-width="2" stroke-linecap="square"></path>
                </g>
            </g>
        </g>
    </g>
</svg>