<?xml version="1.0" encoding="UTF-8"?>
<svg width="203px" height="216px" viewBox="0 0 203 216" version="1.1" xmlns="http://www.w3.org/2000/svg" xmlns:xlink="http://www.w3.org/1999/xlink">
    <!-- Generator: Sketch 53.2 (72643) - https://sketchapp.com -->
    <title>Combined Shape</title>
    <desc>Created with Sketch.</desc>
    <g id="Home" stroke="none" stroke-width="1" fill="none" fill-rule="evenodd">
        <g id="Homepage" transform="translate(-93.000000, -1563.000000)" stroke="#818795" stroke-width="2">
            <g id="Explore-by-Category" transform="translate(94.000000, 1246.000000)">
                <path d="M101.112751,509.261142 L99.9424111,494.886386 L101.112751,509.261142 Z M3.40852323,530.970366 L10.8964655,518.629248 L3.40852323,530.970366 Z M3.2053909,508.104476 L11.0958706,496.017794 L3.2053909,508.104476 Z M27.7135861,531.457325 L33.2764302,518.146747 L27.7135861,531.457325 Z M-1.98951966e-13,321.409269 L14.2397627,318.842613 L-1.98951966e-13,321.409269 Z M2.90460596,485.162625 L11.3895739,473.480814 L2.90460596,485.162625 Z M0.246181476,345.11703 L13.9976812,340.628169 L0.246181476,345.11703 Z M2.51474098,462.124386 L11.7731026,451.040595 L2.51474098,462.124386 Z M27.4942405,508.627093 L33.4913032,495.505949 L27.4942405,508.627093 Z M2.0546183,438.974529 L12.22428,428.713479 L2.0546183,438.974529 Z M0.610328791,368.748831 L13.6406155,362.484484 L0.610328791,368.748831 Z M1.06020168,392.284244 L13.1996879,384.437559 L1.06020168,392.284244 Z M1.55629183,415.69281 L12.7117976,406.512652 L1.55629183,415.69281 Z M52.1315831,531.812422 L55.5456971,517.803536 L52.1315831,531.812422 Z M23.4163123,321.804853 L37.4902147,318.452601 L23.4163123,321.804853 Z M27.1481701,485.725729 L33.8310374,472.933311 L27.1481701,485.725729 Z M26.6792885,462.722963 L34.2902282,450.45799 L26.6792885,462.722963 Z M23.7558601,345.593774 L37.1570031,340.155882 L23.7558601,345.593774 Z M51.9092557,509.017477 L55.7631792,495.120022 L51.9092557,509.017477 Z M76.651519,532 L77.7100434,517.619672 L76.651519,532 Z M24.240396,369.301721 L36.6817853,361.941623 L24.240396,369.301721 Z M26.1082816,439.593349 L34.8504262,428.104687 L26.1082816,439.593349 Z M25.4740988,416.321659 L35.4723093,405.899032 L25.4740988,416.321659 Z M24.8313433,392.887835 L36.1023923,383.843254 L24.8313433,392.887835 Z M46.827593,322.104234 L60.744953,318.163248 L46.827593,322.104234 Z M51.5249815,486.167001 L56.1392535,472.501697 L51.5249815,486.167001 Z M76.4478276,509.245727 L77.9144803,494.900686 L76.4478276,509.245727 Z M47.2644206,345.989544 L60.3170706,339.771626 L47.2644206,345.989544 Z M50.9742879,463.21995 L56.6787655,449.97066 L50.9742879,463.21995 Z M50.2748791,440.141038 L57.3658746,427.571484 L50.2748791,440.141038 Z M47.8872355,369.783665 L59.7061827,361.470822 L47.8872355,369.783665 Z M49.4742768,416.884763 L58.1493318,405.345957 L49.4742768,416.884763 Z M48.6492613,393.43051 L58.958693,383.310608 L48.6492613,393.43051 Z M70.2079378,322.271568 L84.0321179,318 L70.2079378,322.271568 Z M76.0458492,486.455982 L78.3063952,472.213087 L76.0458492,486.455982 Z M70.7424181,346.273511 L83.5118009,339.491003 L70.7424181,346.273511 Z M75.4146481,463.595291 L78.9219421,449.606833 L75.4146481,463.595291 Z M100.720837,486.542342 L100.32389,472.132299 L100.720837,486.542342 Z M71.5210299,370.17925 L82.7436253,361.078952 L71.5210299,370.17925 Z M74.5698785,440.592524 L79.7562755,427.131513 L74.5698785,440.592524 Z M93.5342383,322.251139 L107.367736,318.020429 L93.5342383,322.251139 Z M72.4983014,393.90224 L81.7864807,382.850021 L72.4983014,393.90224 Z M73.562044,417.376736 L80.7443559,404.862898 L73.562044,417.376736 Z M94.1399081,346.395343 L106.776975,339.369542 L94.1399081,346.395343 Z M100.033727,463.793083 L100.995345,449.409041 L100.033727,463.793083 Z M116.789163,321.967173 L130.781067,318.295481 L116.789163,321.967173 Z M99.0260793,440.922364 L101.989202,426.805759 L99.0260793,440.922364 Z M95.09668,370.463216 L105.836603,360.800186 L95.09668,370.463216 Z M96.3538641,394.303024 L104.604019,382.459637 L96.3538641,394.303024 Z M97.7383321,417.792564 L103.245268,404.457842 L97.7383321,417.792564 Z M101.260349,531.979756 L99.7936958,517.634716 L101.260349,531.979756 Z M117.410114,346.283725 L130.170179,339.482646 L117.410114,346.283725 Z M139.978116,321.302665 L154.255151,318.949588 L139.978116,321.302665 Z M123.701067,441.074469 L124.006697,426.653283 L123.701067,441.074469 Z M118.540015,370.579848 L129.065624,360.688382 L118.540015,370.579848 Z M163.212728,320.125941 L177.683577,320.09994 L163.212728,320.125941 Z M122.041904,418.112189 L125.629333,404.142303 L122.041904,418.112189 Z M120.173832,394.612249 L127.462369,382.154127 L120.173832,394.612249 Z M140.492097,345.761294 L153.751606,339.994677 L140.492097,345.761294 Z M186.747751,318.411556 L200.816063,321.778666 L186.747751,318.411556 Z M141.698405,370.392271 L152.570643,360.872245 L141.698405,370.392271 Z M163.411387,344.538882 L177.489017,341.190344 L163.411387,344.538882 Z M146.548981,418.309981 L147.810638,403.944511 L146.548981,418.309981 Z M143.851421,394.800012 L150.45229,381.966735 L143.851421,394.800012 Z M186.564559,342.317295 L201,343.372187 L186.564559,342.317295 Z M164.352878,369.489299 L176.568771,361.759617 L164.352878,369.489299 Z M167.086032,394.74931 L173.886307,382.01818 L167.086032,394.74931 Z M186.635749,366.730051 L200.927692,364.462406 L186.635749,366.730051 Z M188.356037,393.1211 L199.237594,383.615932 L188.356037,393.1211 Z M198.540794,416.641284 L189.252615,405.583493 L198.540794,416.641284 Z M200.266115,437.280387 L187.561958,430.377162 L200.266115,437.280387 Z M200.342522,459.872341 L187.48555,453.253267 L200.342522,459.872341 Z M200.169394,482.920609 L187.659051,475.683086 L200.169394,482.920609 Z M199.879231,506.121168 L187.942877,497.96433 L199.879231,506.121168 Z M199.497566,529.357385 L188.31597,520.206943 L199.497566,529.357385 Z M171.549726,418.264294 L169.509084,403.991684 L171.549726,418.264294 Z M174.29313,440.024406 L166.81637,427.683288 L174.29313,440.024406 Z M175.250089,462.078699 L165.879911,451.091482 L175.250089,462.078699 Z M175.479125,484.614936 L165.656093,474.023304 L175.479125,484.614936 Z M175.392654,507.424925 L165.742936,496.681002 L175.392654,507.424925 Z M175.133055,530.382004 L165.9921,519.203496 L175.133055,530.382004 Z M148.717279,440.912149 L145.683339,426.810402 L148.717279,440.912149 Z M149.958995,463.265637 L144.466968,449.925344 L149.958995,463.265637 Z M150.513789,485.745973 L143.922238,472.912696 L150.513789,485.745973 Z M150.666604,508.403857 L143.775013,495.722871 L150.666604,508.403857 Z M150.574915,531.188402 L143.86223,518.410841 L150.574915,531.188402 Z M124.866748,463.742382 L122.855924,449.458629 L124.866748,463.742382 Z M125.553671,486.344549 L122.184283,472.324519 L125.553671,486.344549 Z M125.869364,509.002248 L121.879398,495.14008 L125.869364,509.002248 Z M125.920241,531.721048 L121.827777,517.888596 L125.920241,531.721048 Z" id="Combined-Shape"></path>
            </g>
        </g>
    </g>
</svg>